<svg width="148" height="40" viewBox="0 0 148 40" fill="none" xmlns="http://www.w3.org/2000/svg">
<g id="ios" clip-path="url(#clip0_64_836)">
<g id="Group">
<g id="Group_2">
<g id="Group_3">
<path id="Vector" d="M136.214 0.00013H11.7925C11.3389 0.00013 10.8908 0.00013 10.4385 0.00213C10.0598 0.00413 9.68422 0.00994 9.30194 0.01483C8.47145 0.0227318 7.64291 0.0818063 6.82352 0.19154C6.00529 0.303663 5.21269 0.515046 4.47253 0.81854C3.73327 1.1246 3.05779 1.5223 2.47059 1.9972C1.8803 2.47077 1.38826 3.01815 1.01337 3.61829C0.637445 4.21724 0.376778 4.85907 0.240371 5.52161C0.102668 6.18332 0.028568 6.85265 0.0187375 7.52361C0.00725999 7.83021 0.00604793 8.13783 0 8.44447V31.5587C0.00604793 31.8692 0.00725999 32.17 0.0187375 32.4806C0.028571 33.1516 0.102671 33.8209 0.240371 34.4825C0.376401 35.1455 0.637084 35.7877 1.01337 36.3868C1.38809 36.985 1.8802 37.5302 2.47059 38.0011C3.05556 38.4781 3.73148 38.8761 4.47253 39.1798C5.21268 39.4841 6.0052 39.6968 6.82352 39.8106C7.64305 39.9195 8.4715 39.9786 9.30194 39.9874C9.68422 39.9942 10.0598 39.9981 10.4385 39.9981C10.8908 40.0001 11.3389 40.0001 11.7925 40.0001H136.214C136.659 40.0001 137.11 40.0001 137.555 39.9981C137.932 39.9981 138.318 39.9942 138.695 39.9874C139.524 39.9791 140.351 39.92 141.169 39.8106C141.99 39.696 142.785 39.4834 143.529 39.1798C144.269 38.8759 144.944 38.478 145.529 38.0011C146.118 37.5284 146.611 36.9836 146.99 36.3868C147.364 35.7872 147.622 35.1451 147.756 34.4825C147.894 33.8208 147.971 33.1516 147.986 32.4806C147.99 32.17 147.99 31.8692 147.99 31.5587C148 31.1954 148 30.8341 148 30.4649V9.53626C148 9.17005 148 8.80677 147.99 8.44447C147.99 8.13783 147.99 7.83021 147.986 7.52357C147.971 6.85255 147.894 6.18337 147.756 5.52157C147.622 4.85941 147.363 4.21763 146.99 3.61825C146.227 2.41533 145.016 1.43616 143.529 0.81845C142.785 0.515697 141.99 0.30437 141.169 0.19145C140.351 0.0812328 139.524 0.0221378 138.695 0.01469C138.318 0.00981 137.932 0.00395 137.555 0.002C137.11 0 136.659 0 136.214 0V0.00013Z" fill="#A6A6A6"/>
<path id="Vector_2" d="M10.4446 39.1252C10.0677 39.1252 9.70002 39.1213 9.32615 39.1145C8.55164 39.1064 7.77895 39.0519 7.0144 38.9514C6.3015 38.8522 5.61089 38.6675 4.96535 38.4035C4.32573 38.1418 3.74235 37.7985 3.23755 37.3869C2.72544 36.9802 2.29909 36.5085 1.97539 35.9904C1.64812 35.469 1.42163 34.9101 1.30381 34.3332C1.17657 33.7134 1.10773 33.0866 1.09788 32.4582C1.09004 32.2473 1.07977 31.5451 1.07977 31.5451V8.44458C1.07977 8.44458 1.09071 7.75317 1.09794 7.55005C1.10737 6.92273 1.17581 6.2969 1.30267 5.67797C1.42071 5.09949 1.64737 4.53899 1.97482 4.01587C2.29733 3.49819 2.72132 3.0261 3.23034 2.61792C3.73879 2.20587 4.32404 1.86085 4.96475 1.59545C5.6088 1.33234 6.2981 1.14898 7.00956 1.05151C7.77662 0.95008 8.552 0.89524 9.32919 0.887454L10.4452 0.875244H137.549L138.678 0.887944C139.448 0.895343 140.217 0.949694 140.977 1.05053C141.695 1.14922 142.392 1.33386 143.043 1.59838C144.327 2.13323 145.371 2.97941 146.03 4.01831C146.352 4.53782 146.575 5.09375 146.692 5.66723C146.82 6.29124 146.892 6.92198 146.907 7.55445C146.911 7.83765 146.911 8.14184 146.911 8.44458C146.92 8.81958 146.92 9.17651 146.92 9.53638V30.465C146.92 30.8283 146.92 31.1828 146.911 31.5402C146.911 31.8654 146.911 32.1633 146.906 32.4699C146.891 33.0911 146.821 33.7106 146.694 34.3234C146.579 34.9045 146.354 35.4678 146.026 35.9934C145.701 36.5059 145.277 36.9735 144.77 37.3791C144.265 37.7929 143.681 38.1382 143.04 38.4016C142.39 38.6676 141.695 38.853 140.977 38.9514C140.212 39.0524 139.439 39.1069 138.665 39.1145C138.303 39.1213 137.923 39.1252 137.555 39.1252L136.214 39.1272L10.4446 39.1252Z" fill="black"/>
</g>
</g>
<g id="&#60;Group&#62;">
<g id="&#60;Group&#62;_2">
<path id="&#60;Path&#62;" d="M27.6491 20.7632C27.6612 19.8433 27.9099 18.9414 28.3723 18.1413C28.8346 17.3412 29.4955 16.6689 30.2935 16.1871C29.7866 15.4761 29.1178 14.8909 28.3404 14.4781C27.5629 14.0653 26.6982 13.8362 25.8148 13.8091C23.9305 13.6148 22.1037 14.9165 21.1434 14.9165C20.1646 14.9165 18.6862 13.8284 17.0942 13.8605C16.0644 13.8932 15.0608 14.1873 14.1812 14.7142C13.3016 15.2411 12.5759 15.9828 12.0749 16.867C9.90465 20.5574 11.5234 25.9811 13.6024 28.9641C14.6425 30.4248 15.8581 32.0565 17.4487 31.9986C19.0051 31.9352 19.5865 31.0238 21.4653 31.0238C23.3267 31.0238 23.8721 31.9986 25.4949 31.9618C27.1651 31.9352 28.2174 30.4946 29.221 29.0201C29.9683 27.9793 30.5434 26.8289 30.9249 25.6117C29.9546 25.2086 29.1265 24.5339 28.544 23.6717C27.9615 22.8095 27.6502 21.798 27.6491 20.7632Z" fill="white"/>
<path id="&#60;Path&#62;_2" d="M24.6684 11.8471C25.659 10.7734 26.1471 9.39335 26.0289 8C24.5154 8.14352 23.1174 8.7966 22.1134 9.82911C21.6225 10.3335 21.2465 10.9203 21.007 11.556C20.7674 12.1917 20.669 12.8638 20.7173 13.5338C21.4743 13.5408 22.2232 13.3927 22.9076 13.1005C23.592 12.8084 24.194 12.3798 24.6684 11.8471Z" fill="white"/>
</g>
</g>
<g id="Group_4">
<g id="Group 6935">
<path id="Vector_3" d="M51.3555 26.9288H46.0621L44.7909 30.3178H42.5488L47.5626 17.7795H49.892L54.9058 30.3178H52.6255L51.3555 26.9288ZM46.6103 25.365H50.8062L48.7378 19.865H48.6799L46.6103 25.365Z" fill="white"/>
<path id="Vector_4" d="M65.734 25.7476C65.734 28.5883 64.05 30.4134 61.5087 30.4134C60.8649 30.4438 60.2247 30.31 59.6613 30.0271C59.0979 29.7443 58.6341 29.3239 58.3231 28.8141H58.275V33.3419H56.1967V21.1764H58.2084V22.6969H58.2466C58.572 22.1895 59.0436 21.7713 59.6113 21.4868C60.179 21.2022 60.8215 21.0619 61.4705 21.0808C64.0401 21.0808 65.734 22.9148 65.734 25.7476ZM63.5978 25.7476C63.5978 23.8969 62.5385 22.6801 60.9222 22.6801C59.3343 22.6801 58.2663 23.9225 58.2663 25.7476C58.2663 27.5895 59.3343 28.823 60.9222 28.823C62.5385 28.823 63.5978 27.6151 63.5978 25.7476Z" fill="white"/>
<path id="Vector_5" d="M76.8776 25.7476C76.8776 28.5883 75.1936 30.4134 72.6523 30.4134C72.0085 30.4438 71.3683 30.31 70.8049 30.0271C70.2415 29.7443 69.7777 29.3239 69.4667 28.8141H69.4186V33.3419H67.3403V21.1764H69.352V22.6969H69.3902C69.7156 22.1895 70.1872 21.7713 70.7549 21.4868C71.3226 21.2022 71.9651 21.0619 72.614 21.0808C75.1838 21.0808 76.8776 22.9148 76.8776 25.7476ZM74.7415 25.7476C74.7415 23.8969 73.6821 22.6801 72.0658 22.6801C70.4779 22.6801 69.4099 23.9225 69.4099 25.7476C69.4099 27.5895 70.4779 28.823 72.0658 28.823C73.6821 28.823 74.7415 27.6151 74.7415 25.7476H74.7415Z" fill="white"/>
<path id="Vector_6" d="M84.2427 26.8244C84.3967 28.0677 85.7345 28.8841 87.5626 28.8841C89.3143 28.8841 90.5746 28.0677 90.5746 26.9466C90.5746 25.9734 89.8145 25.3907 88.0147 24.9913L86.215 24.5999C83.665 24.0438 82.4811 22.967 82.4811 21.2198C82.4811 19.0565 84.5692 17.5706 87.5342 17.5706C90.4687 17.5706 92.4803 19.0565 92.548 21.2198H90.4501C90.3245 19.9685 89.1789 19.2133 87.5047 19.2133C85.8305 19.2133 84.6849 19.9774 84.6849 21.0897C84.6849 21.9761 85.4166 22.4977 87.2066 22.897L88.7366 23.2362C91.5859 23.8446 92.7697 24.8779 92.7697 26.7119C92.7697 29.0576 90.7002 30.5268 87.4086 30.5268C84.3289 30.5268 82.2496 29.0921 82.1152 26.8243L84.2427 26.8244Z" fill="white"/>
<path id="Vector_7" d="M97.255 19.0132V21.1765H99.1803V22.6624H97.255V27.702C97.255 28.4849 97.6405 28.8497 98.4869 28.8497C98.7154 28.8461 98.9436 28.8316 99.1705 28.8063V30.2833C98.79 30.3475 98.4032 30.3766 98.0162 30.3701C95.9663 30.3701 95.1669 29.6749 95.1669 27.9021V22.6624H93.6948V21.1765H95.1669V19.0132H97.255Z" fill="white"/>
<path id="Vector_8" d="M100.295 25.7475C100.295 22.8713 102.172 21.064 105.097 21.064C108.033 21.064 109.9 22.8713 109.9 25.7475C109.9 28.6316 108.043 30.4311 105.097 30.4311C102.153 30.4311 100.295 28.6316 100.295 25.7475ZM107.783 25.7475C107.783 23.7745 106.781 22.61 105.097 22.61C103.413 22.61 102.413 23.7834 102.413 25.7475C102.413 27.7284 103.413 28.8841 105.097 28.8841C106.781 28.8841 107.783 27.7284 107.783 25.7475H107.783Z" fill="white"/>
<path id="Vector_9" d="M111.614 21.1763H113.596V22.7323H113.644C113.778 22.2463 114.093 21.8169 114.537 21.5161C114.98 21.2153 115.525 21.0616 116.079 21.0807C116.319 21.0799 116.558 21.1034 116.791 21.1507V22.9058C116.489 22.8224 116.174 22.7841 115.858 22.7924C115.556 22.7814 115.255 22.8294 114.975 22.9333C114.696 23.0372 114.445 23.1944 114.239 23.3942C114.033 23.594 113.878 23.8317 113.783 24.0908C113.689 24.35 113.658 24.6245 113.692 24.8956V30.3177H111.614L111.614 21.1763Z" fill="white"/>
<path id="Vector_10" d="M126.373 27.6328C126.094 29.2923 124.304 30.4311 122.014 30.4311C119.068 30.4311 117.24 28.6494 117.24 25.7909C117.24 22.9236 119.078 21.064 121.926 21.064C124.728 21.064 126.489 22.8013 126.489 25.573V26.2159H119.338V26.3293C119.305 26.6657 119.352 27.0046 119.475 27.3235C119.598 27.6424 119.795 27.934 120.053 28.1789C120.31 28.4238 120.623 28.6164 120.969 28.7439C121.316 28.8715 121.688 28.931 122.062 28.9186C122.553 28.9601 123.046 28.8574 123.467 28.6258C123.888 28.3941 124.216 28.0458 124.4 27.6328L126.373 27.6328ZM119.348 24.9045H124.41C124.428 24.602 124.378 24.2993 124.261 24.0154C124.144 23.7314 123.963 23.4724 123.73 23.2545C123.496 23.0367 123.216 22.8647 122.906 22.7494C122.595 22.6341 122.262 22.5779 121.926 22.5844C121.588 22.5826 121.252 22.6413 120.939 22.7571C120.626 22.873 120.341 23.0437 120.102 23.2594C119.862 23.4751 119.672 23.7315 119.543 24.0139C119.413 24.2962 119.347 24.5989 119.348 24.9045V24.9045Z" fill="white"/>
</g>
</g>
<g id="&#60;Group&#62;_3">
<g id="Group_5">
<path id="Vector_11" d="M45.1559 10.3364H46.0668C46.2236 10.354 46.3828 10.3421 46.5342 10.3014C46.6857 10.2608 46.8262 10.1922 46.9469 10.1001C47.0675 10.008 47.1658 9.89431 47.2354 9.76622C47.305 9.63813 47.3444 9.4984 47.3512 9.35586C47.3512 8.78861 46.8785 8.42218 46.0768 8.42218C45.9162 8.40191 45.7526 8.41091 45.5959 8.44865C45.4392 8.48638 45.2924 8.55209 45.1642 8.64189C45.0361 8.7317 44.9292 8.84377 44.8498 8.9715C44.7704 9.09922 44.7202 9.24002 44.7021 9.38556H43.7019C43.7191 9.12136 43.7964 8.86319 43.9289 8.62711C44.0614 8.39104 44.2463 8.18213 44.4722 8.01338C44.698 7.84462 44.9599 7.71965 45.2415 7.64623C45.5231 7.57281 45.8184 7.55253 46.1091 7.58664C47.4504 7.58664 48.3949 8.26462 48.3949 9.2406C48.398 9.56755 48.2769 9.88559 48.0516 10.1416C47.8264 10.3977 47.5107 10.5762 47.1572 10.6474V10.7199C47.5763 10.7367 47.9709 10.9026 48.2548 11.1813C48.5387 11.46 48.6889 11.8289 48.6725 12.2073C48.6415 12.4793 48.5506 12.743 48.4053 12.9829C48.2599 13.2228 48.063 13.4341 47.826 13.6044C47.5891 13.7748 47.3168 13.9006 47.0253 13.9747C46.7337 14.0488 46.4287 14.0696 46.1281 14.0359C45.8269 14.073 45.5205 14.0549 45.2272 13.9828C44.9339 13.9107 44.6597 13.786 44.4209 13.6161C44.1821 13.4463 43.9837 13.2348 43.8373 12.9942C43.691 12.7536 43.5999 12.4889 43.5693 12.2158H44.585C44.6463 12.8042 45.2451 13.1838 46.1281 13.1838C47.0112 13.1838 47.5876 12.7575 47.5876 12.1565C47.5876 11.5469 47.0446 11.1714 46.0958 11.1714H45.1559V10.3364Z" fill="white"/>
<path id="Vector_12" d="M49.8265 12.5742C49.8265 11.7386 50.5166 11.2569 51.7386 11.1885L53.1312 11.116V10.7154C53.1312 10.2251 52.7733 9.94827 52.0787 9.94827C51.5123 9.94827 51.121 10.136 51.0072 10.4642H50.0249C50.1286 9.6669 50.9604 9.15552 52.1267 9.15552C53.4156 9.15552 54.1425 9.73485 54.1425 10.7154V13.8869H53.1647V13.2346H53.0844C52.9215 13.4685 52.6927 13.6593 52.4214 13.7873C52.1501 13.9154 51.846 13.9761 51.5402 13.9634C51.3244 13.9836 51.1062 13.9628 50.8998 13.9023C50.6935 13.8418 50.5034 13.7429 50.342 13.612C50.1805 13.4812 50.0512 13.3212 49.9624 13.1424C49.8736 12.9637 49.8273 12.7701 49.8265 12.5742ZM53.1312 12.1775V11.7895L51.8757 11.8619C51.1677 11.9047 50.8466 12.1222 50.8466 12.5314C50.8466 12.9491 51.248 13.1923 51.8 13.1923C51.9617 13.207 52.1251 13.1923 52.2803 13.1489C52.4356 13.1055 52.5797 13.0344 52.7039 12.9397C52.8281 12.845 52.9299 12.7288 53.0033 12.5978C53.0768 12.4669 53.1203 12.324 53.1312 12.1775Z" fill="white"/>
<path id="Vector_13" d="M56.8352 10.0162V13.8869H55.8206V9.24512H59.2056V10.0162L56.8352 10.0162Z" fill="white"/>
<path id="Vector_14" d="M65.3546 11.5641C65.3546 13.0388 64.5284 13.9635 63.2306 13.9635C62.912 13.9831 62.5938 13.9202 62.3135 13.782C62.0332 13.6439 61.8025 13.4364 61.6484 13.1838H61.5682V15.4302H60.5535V9.2452H61.5302V10.0123H61.6061C61.7629 9.75094 61.9966 9.53378 62.2815 9.38482C62.5664 9.23586 62.8914 9.1609 63.2205 9.16821C64.5284 9.16818 65.3546 10.0888 65.3546 11.5641ZM64.311 11.5641C64.311 10.5836 63.797 9.99114 62.9373 9.99114C62.0833 9.99114 61.5492 10.5961 61.5492 11.5681C61.5492 12.5355 62.0833 13.141 62.9329 13.141C63.797 13.141 64.311 12.5486 64.311 11.5641Z" fill="white"/>
<path id="Vector_15" d="M66.706 15.5494V14.7607C66.8158 14.7733 66.9264 14.779 67.0371 14.7778C67.2532 14.7923 67.4677 14.7341 67.6393 14.6146C67.8109 14.495 67.9276 14.3225 67.9669 14.13L68.0428 13.904L66.1819 9.24512H67.2868L68.5758 12.9321H68.656L69.9405 9.24512H71.0164L69.0998 14.0787C68.6605 15.2081 68.1744 15.5706 67.1263 15.5706C67.0416 15.5705 66.8007 15.562 66.706 15.5494Z" fill="white"/>
<path id="Vector_16" d="M71.8069 12.5697H72.8171C72.9163 12.979 73.3412 13.1923 73.9354 13.1923C74.6111 13.1923 75.0259 12.9236 75.0259 12.5058C75.0259 12.0583 74.6535 11.8449 73.9354 11.8449H73.1661V11.1332H73.922C74.5353 11.1332 74.8475 10.9203 74.8475 10.5322C74.8475 10.1915 74.5453 9.93126 73.922 9.93126C73.3545 9.93126 72.9398 10.1487 72.8739 10.5151H71.8961C71.9693 10.0941 72.2225 9.71575 72.6013 9.46151C72.9802 9.20727 73.4544 9.09743 73.922 9.15562C75.1441 9.15562 75.8431 9.65443 75.8431 10.4386C75.8489 10.657 75.7714 10.8705 75.6236 11.0435C75.4759 11.2165 75.2668 11.3384 75.0314 11.3889V11.4614C75.3117 11.494 75.5689 11.6184 75.7543 11.8109C75.9397 12.0035 76.0403 12.2507 76.0372 12.5058C76.0372 13.3882 75.2054 13.972 73.9354 13.972C72.8127 13.972 71.9006 13.5074 71.8069 12.5697Z" fill="white"/>
<path id="Vector_17" d="M77.4984 13.8869V9.24512H78.5041V12.4378H78.5843L80.9536 9.24513H81.9593V13.8869H80.9536V10.6771H80.8778L78.5041 13.8869L77.4984 13.8869Z" fill="white"/>
<path id="Vector_18" d="M87.4996 10.0162H85.8806V13.8868H84.8649V10.0162H83.2459V9.24512H87.4996V10.0162Z" fill="white"/>
<path id="Vector_19" d="M92.9652 12.6337C92.8269 13.0579 92.528 13.4247 92.1206 13.6702C91.7132 13.9156 91.2233 14.0241 90.7363 13.9766C90.3976 13.9846 90.061 13.9261 89.7499 13.8049C89.4388 13.6837 89.1606 13.5029 88.9346 13.275C88.7087 13.047 88.5404 12.7774 88.4414 12.4848C88.3424 12.1922 88.3151 11.8837 88.3615 11.5807C88.3164 11.2767 88.3441 10.9675 88.4429 10.6741C88.5416 10.3806 88.709 10.1097 88.9338 9.87979C89.1586 9.64984 89.4354 9.46618 89.7457 9.34123C90.0559 9.21629 90.3922 9.15298 90.7319 9.1556C92.1624 9.1556 93.0265 10.038 93.0265 11.4956V11.8152H89.3962V11.8666C89.3801 12.037 89.4037 12.2085 89.4654 12.3701C89.5271 12.5318 89.6256 12.68 89.7546 12.8053C89.8835 12.9305 90.0401 13.03 90.2141 13.0973C90.3882 13.1647 90.576 13.1984 90.7653 13.1964C91.0079 13.2225 91.2536 13.183 91.4712 13.0828C91.6887 12.9826 91.8684 12.8263 91.9873 12.6336L92.9652 12.6337ZM89.3961 11.1377H91.9918C92.0046 10.982 91.9812 10.8256 91.9231 10.6786C91.865 10.5315 91.7735 10.397 91.6544 10.2838C91.5354 10.1706 91.3914 10.0811 91.2317 10.021C91.0721 9.96102 90.9003 9.9318 90.7274 9.93528C90.5519 9.93312 90.3776 9.96275 90.215 10.0224C90.0524 10.0821 89.9047 10.1706 89.7805 10.2827C89.6564 10.3948 89.5585 10.5282 89.4925 10.6751C89.4264 10.8219 89.3937 10.9793 89.3962 11.1377H89.3961Z" fill="white"/>
<path id="Vector_20" d="M97.2667 9.24512H99.5847C100.59 9.24512 101.18 9.70517 101.18 10.4254C101.182 10.654 101.096 10.8761 100.938 11.0545C100.78 11.233 100.559 11.3571 100.312 11.4059V11.4784C100.612 11.4955 100.893 11.6161 101.098 11.8153C101.303 12.0144 101.415 12.2769 101.411 12.5485C101.411 13.3584 100.737 13.8869 99.6082 13.8869H97.2667V9.24512ZM98.2724 9.94828V11.1502H99.2781C99.8914 11.1502 100.185 10.9373 100.185 10.5447C100.185 10.1828 99.9293 9.94827 99.3908 9.94827L98.2724 9.94828ZM98.2724 11.8237V13.1837H99.4755C100.075 13.1837 100.396 12.9447 100.396 12.5057C100.396 12.0412 100.033 11.8237 99.3484 11.8237L98.2724 11.8237Z" fill="white"/>
</g>
</g>
</g>
</g>
<defs>
<clipPath id="clip0_64_836">
<rect width="148" height="40" fill="white"/>
</clipPath>
</defs>
</svg>
