<svg width="48" height="48" viewBox="0 0 48 48" fill="none" xmlns="http://www.w3.org/2000/svg">
<path d="M22.5 23.25H31.5V24.75H22.5V23.25Z" fill="#2D66EE"/>
<path d="M16.5 23.25H21V24.75H16.5V23.25Z" fill="#2D66EE"/>
<path d="M16.5 26.25H31.5V27.75H16.5V26.25Z" fill="#2D66EE"/>
<path d="M16.5 20.25H31.5V21.75H16.5V20.25Z" fill="#2D66EE"/>
<path d="M25.5 7.5H27V9H25.5V7.5Z" fill="#2D66EE"/>
<path d="M22.5 10.5H24V12H22.5V10.5Z" fill="#2D66EE"/>
<path d="M24 36H25.5V37.5H24V36Z" fill="#2D66EE"/>
<path d="M21 39H22.5V40.5H21V39Z" fill="#2D66EE"/>
<path d="M45.84 33.0825L44.04 32.85L45.1575 31.4175C45.2688 31.2731 45.3241 31.0933 45.313 30.9113C45.302 30.7293 45.2254 30.5574 45.0975 30.4275L43.0725 28.4025C42.9426 28.2746 42.7707 28.198 42.5887 28.187C42.4067 28.1759 42.2269 28.2312 42.0825 28.3425L40.65 29.46L40.4175 27.66C40.3955 27.4784 40.3079 27.311 40.1712 27.1894C40.0344 27.0679 39.858 27.0005 39.675 27H37.5V3.75C37.4982 3.15381 37.2606 2.58255 36.839 2.16098C36.4175 1.73941 35.8462 1.50178 35.25 1.5H12.75C12.1538 1.50178 11.5825 1.73941 11.161 2.16098C10.7394 2.58255 10.5018 3.15381 10.5 3.75V4.5H8.325C8.14203 4.50051 7.96556 4.56788 7.82881 4.68944C7.69206 4.811 7.60446 4.97835 7.5825 5.16L7.35 6.96L5.9175 5.8425C5.77309 5.73119 5.59325 5.67594 5.41126 5.68698C5.22926 5.69801 5.05741 5.77457 4.9275 5.9025L2.9025 7.9275C2.77457 8.05741 2.69801 8.22926 2.68698 8.41126C2.67594 8.59325 2.73119 8.77309 2.8425 8.9175L3.96 10.35L2.16 10.5825C1.97835 10.6045 1.811 10.6921 1.68944 10.8288C1.56788 10.9656 1.50051 11.142 1.5 11.325V14.175C1.50051 14.358 1.56788 14.5344 1.68944 14.6712C1.811 14.8079 1.97835 14.8955 2.16 14.9175L3.96 15.15L2.8425 16.5825C2.73119 16.7269 2.67594 16.9067 2.68698 17.0887C2.69801 17.2707 2.77457 17.4426 2.9025 17.5725L4.9275 19.5975C5.05741 19.7254 5.22926 19.802 5.41126 19.813C5.59325 19.8241 5.77309 19.7688 5.9175 19.6575L7.35 18.54L7.5825 20.34C7.60446 20.5216 7.69206 20.689 7.82881 20.8106C7.96556 20.9321 8.14203 20.9995 8.325 21H10.5V44.25C10.5018 44.8462 10.7394 45.4175 11.161 45.839C11.5825 46.2606 12.1538 46.4982 12.75 46.5H35.25C35.8462 46.4982 36.4175 46.2606 36.839 45.839C37.2606 45.4175 37.4982 44.8462 37.5 44.25V43.5H39.675C39.858 43.4995 40.0344 43.4321 40.1712 43.3106C40.3079 43.189 40.3955 43.0216 40.4175 42.84L40.65 41.04L42.0825 42.1575C42.2269 42.2688 42.4067 42.3241 42.5887 42.313C42.7707 42.302 42.9426 42.2254 43.0725 42.0975L45.0975 40.0725C45.2254 39.9426 45.302 39.7707 45.313 39.5887C45.3241 39.4067 45.2688 39.2269 45.1575 39.0825L44.04 37.65L45.84 37.4175C46.0216 37.3955 46.189 37.3079 46.3106 37.1712C46.4321 37.0344 46.4995 36.858 46.5 36.675V33.825C46.4995 33.642 46.4321 33.4656 46.3106 33.3288C46.189 33.1921 46.0216 33.1045 45.84 33.0825ZM10.5 14.85C10.2612 14.945 10.007 14.9958 9.75 15C9.15326 15 8.58097 14.7629 8.15901 14.341C7.73705 13.919 7.5 13.3467 7.5 12.75C7.5 12.1533 7.73705 11.581 8.15901 11.159C8.58097 10.7371 9.15326 10.5 9.75 10.5C10.007 10.5042 10.2612 10.555 10.5 10.65V14.85ZM10.5 9.0825C10.253 9.03242 10.002 9.0048 9.75 9C8.75544 9 7.80161 9.39509 7.09835 10.0983C6.39509 10.8016 6 11.7554 6 12.75C6 13.7446 6.39509 14.6984 7.09835 15.4017C7.80161 16.1049 8.75544 16.5 9.75 16.5C10.002 16.4952 10.253 16.4676 10.5 16.4175V19.5H8.985L8.76 17.715C8.74068 17.5732 8.68193 17.4397 8.59044 17.3296C8.49895 17.2196 8.37839 17.1374 8.2425 17.0925C8.06164 17.0382 7.88595 16.9679 7.7175 16.8825C7.59292 16.8214 7.4536 16.7967 7.3156 16.8113C7.1776 16.8259 7.04654 16.8792 6.9375 16.965L5.52 18.0675L4.4325 16.98L5.535 15.5625C5.621 15.4535 5.67439 15.3225 5.68899 15.1844C5.70359 15.0464 5.6788 14.907 5.6175 14.7825C5.53212 14.614 5.46185 14.4384 5.4075 14.2575C5.3626 14.1216 5.28045 14.0011 5.17039 13.9096C5.06034 13.8181 4.92681 13.7593 4.785 13.74L3 13.515V11.985L4.785 11.76C4.92681 11.7407 5.06034 11.6819 5.17039 11.5904C5.28045 11.4989 5.3626 11.3784 5.4075 11.2425C5.46185 11.0616 5.53212 10.886 5.6175 10.7175C5.6788 10.593 5.70359 10.4536 5.68899 10.3156C5.67439 10.1775 5.621 10.0465 5.535 9.9375L4.4325 8.52L5.52 7.4325L6.9375 8.535C7.04654 8.62084 7.1776 8.67412 7.3156 8.68872C7.4536 8.70332 7.59292 8.67863 7.7175 8.6175C7.88595 8.53212 8.06164 8.46185 8.2425 8.4075C8.37839 8.3626 8.49895 8.28045 8.59044 8.17039C8.68193 8.06034 8.74068 7.92681 8.76 7.785L8.985 6H10.5V9.0825ZM16.5 3H31.5V3.75C31.5 3.94891 31.421 4.13968 31.2803 4.28033C31.1397 4.42098 30.9489 4.5 30.75 4.5H17.25C17.0511 4.5 16.8603 4.42098 16.7197 4.28033C16.579 4.13968 16.5 3.94891 16.5 3.75V3ZM36 13.5H30.75V11.25C30.75 11.0511 30.671 10.8603 30.5303 10.7197C30.3897 10.579 30.1989 10.5 30 10.5H25.5V12H29.25V14.25C29.25 14.4489 29.329 14.6397 29.4697 14.7803C29.6103 14.921 29.8011 15 30 15H36V34.5H28.5C28.3011 34.5 28.1103 34.579 27.9697 34.7197C27.829 34.8603 27.75 35.0511 27.75 35.25V39H24V40.5H28.5C28.6989 40.5 28.8897 40.421 29.0303 40.2803C29.171 40.1397 29.25 39.9489 29.25 39.75V36H36V44.25C36 44.4489 35.921 44.6397 35.7803 44.7803C35.6397 44.921 35.4489 45 35.25 45H12.75C12.5511 45 12.3603 44.921 12.2197 44.7803C12.079 44.6397 12 44.4489 12 44.25V34.5H17.25V36.75C17.25 36.9489 17.329 37.1397 17.4697 37.2803C17.6103 37.421 17.8011 37.5 18 37.5H22.5V36H18.75V33.75C18.75 33.5511 18.671 33.3603 18.5303 33.2197C18.3897 33.079 18.1989 33 18 33H12V13.5H19.5C19.6989 13.5 19.8897 13.421 20.0303 13.2803C20.171 13.1397 20.25 12.9489 20.25 12.75V9H24V7.5H19.5C19.3011 7.5 19.1103 7.57902 18.9697 7.71967C18.829 7.86032 18.75 8.05109 18.75 8.25V12H12V3.75C12 3.55109 12.079 3.36032 12.2197 3.21967C12.3603 3.07902 12.5511 3 12.75 3H15V3.75C15.0018 4.34619 15.2394 4.91745 15.661 5.33902C16.0825 5.76059 16.6538 5.99822 17.25 6H30.75C31.3462 5.99822 31.9175 5.76059 32.339 5.33902C32.7606 4.91745 32.9982 4.34619 33 3.75V3H35.25C35.4489 3 35.6397 3.07902 35.7803 3.21967C35.921 3.36032 36 3.55109 36 3.75V13.5ZM37.5 33.15C37.7388 33.055 37.993 33.0042 38.25 33C38.8467 33 39.419 33.2371 39.841 33.659C40.2629 34.081 40.5 34.6533 40.5 35.25C40.5 35.8467 40.2629 36.419 39.841 36.841C39.419 37.2629 38.8467 37.5 38.25 37.5C37.993 37.4958 37.7388 37.445 37.5 37.35V33.15ZM45 36.015L43.215 36.24C43.0732 36.2593 42.9397 36.3181 42.8296 36.4096C42.7196 36.5011 42.6374 36.6216 42.5925 36.7575C42.5382 36.9384 42.4679 37.114 42.3825 37.2825C42.3212 37.407 42.2964 37.5464 42.311 37.6844C42.3256 37.8225 42.379 37.9535 42.465 38.0625L43.5675 39.48L42.48 40.5675L41.0625 39.465C40.9535 39.379 40.8225 39.3256 40.6844 39.311C40.5464 39.2964 40.407 39.3212 40.2825 39.3825C40.114 39.4679 39.9384 39.5382 39.7575 39.5925C39.6216 39.6374 39.5011 39.7196 39.4096 39.8296C39.3181 39.9397 39.2593 40.0732 39.24 40.215L39.015 42H37.5V38.9175C37.747 38.9676 37.998 38.9952 38.25 39C39.2446 39 40.1984 38.6049 40.9016 37.9016C41.6049 37.1984 42 36.2446 42 35.25C42 34.2554 41.6049 33.3016 40.9016 32.5984C40.1984 31.8951 39.2446 31.5 38.25 31.5C37.998 31.5048 37.747 31.5324 37.5 31.5825V28.5H39.015L39.24 30.285C39.2593 30.4268 39.3181 30.5603 39.4096 30.6704C39.5011 30.7804 39.6216 30.8626 39.7575 30.9075C39.9384 30.9618 40.114 31.0321 40.2825 31.1175C40.407 31.1788 40.5464 31.2036 40.6844 31.189C40.8225 31.1744 40.9535 31.121 41.0625 31.035L42.48 29.9325L43.5675 31.02L42.465 32.4375C42.379 32.5465 42.3256 32.6775 42.311 32.8156C42.2964 32.9536 42.3212 33.093 42.3825 33.2175C42.4679 33.386 42.5382 33.5616 42.5925 33.7425C42.6374 33.8784 42.7196 33.9989 42.8296 34.0904C42.9397 34.1819 43.0732 34.2407 43.215 34.26L45 34.485V36.015Z" fill="#2D66EE"/>
<path d="M32.25 17.25H15.75C15.1538 17.2518 14.5825 17.4894 14.161 17.911C13.7394 18.3325 13.5018 18.9038 13.5 19.5V28.5C13.5018 29.0962 13.7394 29.6675 14.161 30.089C14.5825 30.5106 15.1538 30.7482 15.75 30.75H32.25C32.8462 30.7482 33.4175 30.5106 33.839 30.089C34.2606 29.6675 34.4982 29.0962 34.5 28.5V19.5C34.4982 18.9038 34.2606 18.3325 33.839 17.911C33.4175 17.4894 32.8462 17.2518 32.25 17.25ZM33 28.5C33 28.6989 32.921 28.8897 32.7803 29.0303C32.6397 29.171 32.4489 29.25 32.25 29.25H15.75C15.5511 29.25 15.3603 29.171 15.2197 29.0303C15.079 28.8897 15 28.6989 15 28.5V19.5C15 19.3011 15.079 19.1103 15.2197 18.9697C15.3603 18.829 15.5511 18.75 15.75 18.75H32.25C32.4489 18.75 32.6397 18.829 32.7803 18.9697C32.921 19.1103 33 19.3011 33 19.5V28.5Z" fill="#2D66EE"/>
</svg>
