<svg width="24" height="24" viewBox="0 0 24 24" fill="none" xmlns="http://www.w3.org/2000/svg">
<g id="bowl_sticks_outline_24">
<path id="&#226;&#134;&#179; Icon Color" fill-rule="evenodd" clip-rule="evenodd" d="M5.62599 2.73187C5.97747 2.38039 6.54732 2.38039 6.89879 2.73187L13.2163 9.04934C13.2327 9.06576 13.2483 9.08266 13.2632 9.09998H19.6667C19.6885 9.09998 19.7107 9.09993 19.7332 9.09987C19.9709 9.09925 20.2447 9.09853 20.4918 9.16472C21.1474 9.34041 21.6596 9.85255 21.8353 10.5082C21.9015 10.7553 21.9007 11.0291 21.9001 11.2667C21.9001 11.2893 21.9 11.3115 21.9 11.3333C21.9 11.3854 21.9 11.4368 21.9 11.4876C21.9003 12.8896 21.9004 13.7751 21.699 14.527C21.1872 16.437 19.756 17.9547 17.9 18.5857V19.02C17.9 19.0489 17.9 19.0777 17.9001 19.1063C17.9006 19.4645 17.901 19.7992 17.8246 20.0968C17.6069 20.9448 16.9448 21.6069 16.0969 21.8246C15.7992 21.901 15.4645 21.9005 15.1064 21.9001C15.0777 21.9 15.0489 21.9 15.02 21.9H8.98C8.95107 21.9 8.92228 21.9 8.89365 21.9001C8.53547 21.9005 8.20077 21.901 7.90315 21.8246C7.05523 21.6069 6.39311 20.9448 6.1754 20.0968C6.09898 19.7992 6.09944 19.4645 6.09992 19.1063C6.09996 19.0777 6.1 19.0489 6.1 19.02V18.5857C4.24397 17.9547 2.81281 16.437 2.30104 14.527C2.09956 13.7751 2.09973 12.8896 2.09998 11.4876C2.09999 11.4368 2.1 11.3854 2.1 11.3333C2.1 11.3115 2.09994 11.2893 2.09988 11.2667C2.09926 11.0291 2.09855 10.7553 2.16474 10.5082C2.34043 9.85255 2.85257 9.34041 3.50824 9.16472C3.75528 9.09853 4.02911 9.09925 4.26675 9.09987C4.28929 9.09993 4.3115 9.09998 4.33333 9.09998H6.47868L3.50467 6.12598C3.1532 5.77451 3.1532 5.20466 3.50467 4.85319C3.85615 4.50171 4.42599 4.50171 4.77747 4.85319L9.02426 9.09998H10.7213L5.62599 4.00466C5.27452 3.65319 5.27452 3.08334 5.62599 2.73187ZM9.66667 17.1H14.3333C15.9412 17.1 16.5686 17.0923 17.0612 16.9603C18.476 16.5812 19.5812 15.476 19.9603 14.0611C20.0923 13.5686 20.1 12.9412 20.1 11.3333C20.1 11.1702 20.0998 11.0778 20.0967 11.0097C20.0956 10.9871 20.0945 10.9729 20.0937 10.965C20.0836 10.9379 20.0621 10.9164 20.035 10.9063C20.0271 10.9055 20.0129 10.9043 19.9903 10.9033C19.9222 10.9002 19.8298 10.9 19.6667 10.9H4.33333C4.17018 10.9 4.07784 10.9002 4.0097 10.9033C3.98713 10.9043 3.97287 10.9055 3.96503 10.9063C3.93789 10.9164 3.91644 10.9379 3.90631 10.965C3.90553 10.9729 3.90436 10.9871 3.90333 11.0097C3.90022 11.0778 3.9 11.1702 3.9 11.3333C3.9 12.9412 3.90773 13.5686 4.03971 14.0611C4.41882 15.476 5.52397 16.5812 6.93884 16.9603C7.43138 17.0923 8.05877 17.1 9.66667 17.1ZM7.9 18.9V19.02C7.9 19.5219 7.90713 19.6035 7.91885 19.6492C7.97328 19.8612 8.13881 20.0267 8.35079 20.0811C8.39644 20.0929 8.47812 20.1 8.98 20.1H15.02C15.5219 20.1 15.6036 20.0929 15.6492 20.0811C15.8612 20.0267 16.0267 19.8612 16.0812 19.6492C16.0929 19.6035 16.1 19.5219 16.1 19.02V18.9H14.7789C14.6843 18.9 14.5873 18.9 14.4876 18.9C14.4369 18.9 14.3855 18.9 14.3333 18.9H9.66667C9.61455 18.9 9.56313 18.9 9.51239 18.9C9.41274 18.9 9.31571 18.9 9.22115 18.9H7.9Z" fill="#2D66EE"/>
</g>
</svg>
