<svg width="24" height="24" viewBox="0 0 24 24" fill="none" xmlns="http://www.w3.org/2000/svg">
<g id="document_outline_24">
<path id="&#226;&#134;&#179; Icon Color" fill-rule="evenodd" clip-rule="evenodd" d="M13.1 3.90021H10.6C9.60506 3.90021 8.91298 3.90091 8.3745 3.94491C7.84653 3.98804 7.54596 4.06828 7.31963 4.18359C6.83041 4.43286 6.43266 4.83061 6.18339 5.31984C6.06807 5.54616 5.98784 5.84673 5.9447 6.37471C5.90071 6.91319 5.90001 7.60527 5.90001 8.60021V15.4002C5.90001 16.3952 5.90071 17.0872 5.9447 17.6257C5.98784 18.1537 6.06807 18.4543 6.18339 18.6806C6.43266 19.1698 6.83041 19.5676 7.31963 19.8168C7.54596 19.9321 7.84653 20.0124 8.3745 20.0555C8.91298 20.0995 9.60506 20.1002 10.6 20.1002H14.4C15.3949 20.1002 16.087 20.0995 16.6255 20.0555C17.1535 20.0124 17.4541 19.9321 17.6804 19.8168C18.1696 19.5676 18.5674 19.1698 18.8166 18.6806C18.9319 18.4543 19.0122 18.1537 19.0553 17.6257C19.0993 17.0872 19.1 16.3952 19.1 15.4002V9.90021H17.2L17.1646 9.90021C16.6347 9.90023 16.1836 9.90024 15.8131 9.86997C15.424 9.83818 15.0454 9.76854 14.6834 9.58413C14.1378 9.3061 13.6941 8.86245 13.4161 8.31678C13.2317 7.95485 13.162 7.57625 13.1302 7.18709C13.1 6.81666 13.1 6.36548 13.1 5.83561L13.1 5.80021V3.90021ZM18.3272 8.10021L14.9 4.673V5.80021C14.9 6.37511 14.9007 6.75216 14.9243 7.04052C14.947 7.31836 14.9863 7.43371 15.0199 7.4996C15.1254 7.70658 15.2936 7.87486 15.5006 7.98032C15.5665 8.01389 15.6819 8.05325 15.9597 8.07595C16.2481 8.09951 16.6251 8.10021 17.2 8.10021H18.3272ZM14.439 2.16652C14.1595 2.09943 13.8727 2.09978 13.5731 2.10015L13.5059 2.10021H10.6H10.5616C9.6141 2.1002 8.84835 2.10019 8.22792 2.15088C7.58864 2.20312 7.02482 2.31362 6.50245 2.57978C5.67454 3.00162 5.00142 3.67474 4.57958 4.50265C4.31342 5.02502 4.20291 5.58884 4.15068 6.22813C4.09999 6.84855 4.1 7.6143 4.10001 8.5618V8.60021V15.4002V15.4386C4.1 16.3861 4.09999 17.1519 4.15068 17.7723C4.20291 18.4116 4.31342 18.9754 4.57958 19.4978C5.00142 20.3257 5.67454 20.9988 6.50245 21.4206C7.02482 21.6868 7.58864 21.7973 8.22792 21.8495C8.84835 21.9002 9.6141 21.9002 10.5616 21.9002H10.6H14.4H14.4384C15.3859 21.9002 16.1517 21.9002 16.7721 21.8495C17.4114 21.7973 17.9752 21.6868 18.4976 21.4206C19.3255 20.9988 19.9986 20.3257 20.4204 19.4978C20.6866 18.9754 20.7971 18.4116 20.8493 17.7723C20.9 17.1519 20.9 16.3861 20.9 15.4386V15.4002V9.49432L20.9001 9.42712C20.9004 9.12749 20.9008 8.84074 20.8337 8.56126C20.7749 8.31637 20.6779 8.08227 20.5463 7.86753C20.3962 7.62247 20.1932 7.41996 19.981 7.20836L19.9335 7.16087L15.8393 3.06676L15.7919 3.0192C15.5803 2.80707 15.3777 2.60405 15.1327 2.45387C14.9179 2.32229 14.6838 2.22531 14.439 2.16652Z" fill="#98A2B3"/>
</g>
</svg>
