<svg width="24" height="24" viewBox="0 0 24 24" fill="none" xmlns="http://www.w3.org/2000/svg">
<g id="education_outline_24">
<g id="&#226;&#134;&#179; Icon Color">
<path fill-rule="evenodd" clip-rule="evenodd" d="M3.96222 8.89555L10.4171 5.22181C11.3984 4.6633 12.6015 4.6633 13.5828 5.22181L20.0377 8.89555C20.0704 8.91419 20.0795 8.92884 20.0838 8.93669C20.091 8.94949 20.0983 8.97126 20.0983 8.99984C20.0983 9.02842 20.091 9.05019 20.0838 9.063C20.0795 9.07085 20.0704 9.0855 20.0377 9.10414L13.5828 12.7779C12.6015 13.3364 11.3984 13.3364 10.4171 12.7779L3.96222 9.10413C3.92948 9.0855 3.92045 9.07085 3.91607 9.063C3.90893 9.05019 3.90158 9.02842 3.90158 8.99984C3.90158 8.97126 3.90893 8.94949 3.91607 8.93669C3.92045 8.92884 3.92948 8.91419 3.96222 8.89555ZM3.07187 10.6685C1.77815 9.9322 1.77815 8.06748 3.07187 7.33117L9.52676 3.65744C11.0601 2.78476 12.9398 2.78476 14.4732 3.65744L20.928 7.33117C21.5742 7.69896 21.8977 8.34826 21.8983 8.99786L21.9 8.9999V13.0999C21.9 13.597 21.497 13.9999 21 13.9999C20.5029 13.9999 20.1 13.597 20.1 13.0999V11.1398L14.4731 14.3423C12.9398 15.2149 11.0601 15.2149 9.52676 14.3422L3.07187 10.6685Z" fill="#3F8AE0"/>
<path fill-rule="evenodd" clip-rule="evenodd" d="M17.2 11.0999V13.1083C17.2 14.5233 17.1994 15.5304 17.1349 16.319C17.0713 17.0971 16.9502 17.5829 16.7532 17.9696C16.3601 18.7411 15.7329 19.3683 14.9614 19.7614C14.5747 19.9585 14.0889 20.0796 13.3108 20.1431C12.9314 20.1741 12.5015 20.1904 12 20.1989V21.9991C12.5434 21.9902 13.0262 21.9724 13.4573 21.9372C14.3467 21.8645 15.0958 21.7131 15.7786 21.3652C16.8888 20.7996 17.7913 19.897 18.357 18.7868C18.7049 18.104 18.8563 17.355 18.9289 16.4655C19.0001 15.5951 19.0001 14.5145 19 13.148V11.0999H17.2Z" fill="#3F8AE0"/>
<path fill-rule="evenodd" clip-rule="evenodd" d="M6.9001 11.0999V13.1099C6.9001 14.5249 6.9008 15.532 6.96523 16.3206C7.0288 17.0987 7.14991 17.5845 7.34697 17.9713C7.74005 18.7427 8.36727 19.3699 9.13874 19.763C9.5255 19.9601 10.0113 20.0812 10.7894 20.1448C11.1432 20.1737 11.541 20.19 12 20.1989V21.9991C11.4971 21.9897 11.0473 21.9718 10.6428 21.9388C9.7534 21.8661 9.00436 21.7147 8.32156 21.3668C7.2114 20.8012 6.30881 19.8986 5.74316 18.7884C5.39526 18.1056 5.24388 17.3566 5.17121 16.4672C5.10009 15.5967 5.10009 14.5161 5.1001 13.1497V11.0999H6.9001Z" fill="#3F8AE0"/>
</g>
</g>
</svg>
