<svg width="24" height="24" viewBox="0 0 24 24" fill="none" xmlns="http://www.w3.org/2000/svg">
<g id="game_outline_24" clip-path="url(#clip0_64_737)">
<path id="&#226;&#134;&#179; Icon Color" d="M17.1231 4.19995C20.0274 4.19995 21.9537 6.03503 23.0158 9.07547C23.7255 11.1071 24 13.4728 24 15.8142C24 19.2212 23.1631 20.5714 20.6096 20.5714C19.3559 20.5714 18.4952 19.7779 16.972 17.8119C15.7533 16.239 15.2902 15.75 15.1308 15.75H8.86923C8.67378 15.75 8.03443 16.3659 6.83533 17.8148L6.81902 17.8345C5.03705 19.9877 4.43474 20.5714 3.39038 20.5714C0.836887 20.5714 0 19.2212 0 15.8142C0 13.4728 0.274526 11.1071 0.984243 9.07547C2.04635 6.03503 3.97265 4.19995 6.87692 4.19995H17.1231ZM17.1231 5.99995H6.87692C3.26947 5.99995 1.8 10.2065 1.8 15.8142C1.8 18.3537 2.05888 18.7714 3.39038 18.7714C3.58155 18.7714 4.21608 18.1565 5.43231 16.6869L5.44864 16.6671C7.19929 14.5518 7.82403 13.95 8.86923 13.95H15.1308C16.1958 13.95 16.5317 14.3046 18.3949 16.7094C19.5176 18.1586 20.1823 18.7714 20.6096 18.7714C21.9411 18.7714 22.2 18.3537 22.2 15.8142C22.2 10.2065 20.7305 5.99995 17.1231 5.99995ZM7.14 7.71424C7.45717 7.71424 7.71429 7.97135 7.71429 8.28852L7.71371 9.42824L8.85429 9.42852C9.17145 9.42852 9.42857 9.68564 9.42857 10.0028V10.5685C9.42857 10.8857 9.17145 11.1428 8.85429 11.1428L7.71371 11.1422L7.71429 12.2828C7.71429 12.6 7.45717 12.8571 7.14 12.8571H6.57429C6.25712 12.8571 6 12.6 6 12.2828L5.99971 11.1422L4.86 11.1428C4.54283 11.1428 4.28571 10.8857 4.28571 10.5685V10.0028C4.28571 9.68564 4.54283 9.42852 4.86 9.42852L5.99971 9.42824L6 8.28852C6 7.97135 6.25712 7.71424 6.57429 7.71424H7.14ZM17.4257 11.1428C17.7429 11.1428 18 11.3999 18 11.7171V12.2828C18 12.6 17.7429 12.8571 17.4257 12.8571H16.86C16.5428 12.8571 16.2857 12.6 16.2857 12.2828V11.7171C16.2857 11.3999 16.5428 11.1428 16.86 11.1428H17.4257ZM15.7114 9.42852C16.0286 9.42852 16.2857 9.68564 16.2857 10.0028V10.5685C16.2857 10.8857 16.0286 11.1428 15.7114 11.1428H15.1457C14.8285 11.1428 14.5714 10.8857 14.5714 10.5685V10.0028C14.5714 9.68564 14.8285 9.42852 15.1457 9.42852H15.7114ZM19.14 9.42852C19.4572 9.42852 19.7143 9.68564 19.7143 10.0028V10.5685C19.7143 10.8857 19.4572 11.1428 19.14 11.1428H18.5743C18.2571 11.1428 18 10.8857 18 10.5685V10.0028C18 9.68564 18.2571 9.42852 18.5743 9.42852H19.14ZM17.4257 7.71424C17.7429 7.71424 18 7.97135 18 8.28852V8.85424C18 9.17141 17.7429 9.42852 17.4257 9.42852H16.86C16.5428 9.42852 16.2857 9.17141 16.2857 8.85424V8.28852C16.2857 7.97135 16.5428 7.71424 16.86 7.71424H17.4257Z" fill="#2D66EE"/>
</g>
<defs>
<clipPath id="clip0_64_737">
<rect width="24" height="24" fill="white"/>
</clipPath>
</defs>
</svg>
