<svg width="136" height="40" viewBox="0 0 136 40" fill="none" xmlns="http://www.w3.org/2000/svg">
<g id="Frame 10782">
<g id="Group">
<path id="Vector" d="M130.963 40H5.03704C2.2667 40 0 37.75 0 35V5.00002C0 2.25 2.26666 0 5.03704 0H130.963C133.733 0 136 2.25 136 5.00002V35C136 37.75 133.733 40 130.963 40" fill="black"/>
<path id="Vector_2" d="M130.963 0H5.03704C2.2667 0 0 2.25 0 5.00002V35C0 37.75 2.26666 40 5.03704 40H130.963C133.733 40 136 37.75 136 35V5.00002C136 2.25 133.733 0 130.963 0H130.963ZM130.963 0.799975C133.296 0.799975 135.194 2.68441 135.194 5.00002V35C135.194 37.316 133.296 39.2004 130.963 39.2004H5.03704C2.70431 39.2004 0.805934 37.316 0.805934 35V5.00002C0.805934 2.68441 2.70427 0.80002 5.03704 0.80002H130.963" fill="#A6A6A6"/>
<path id="Vector_3" d="M47.7697 10.2433C47.7697 11.0811 47.5197 11.7483 47.0192 12.246C46.4505 12.8378 45.7095 13.1339 44.7985 13.1339C43.9261 13.1339 43.1843 12.8339 42.5743 12.2331C41.9633 11.6327 41.6583 10.8882 41.6583 9.99989C41.6583 9.1112 41.9633 8.36714 42.5743 7.76626C43.1843 7.16592 43.9261 6.86548 44.7985 6.86548C45.2314 6.86548 45.6458 6.94952 46.0393 7.11711C46.4328 7.28511 46.7484 7.50811 46.9846 7.78738L46.4533 8.31509C46.0531 7.8405 45.5022 7.60339 44.7985 7.60339C44.1623 7.60339 43.6121 7.82531 43.1478 8.26943C42.6834 8.714 42.4512 9.29052 42.4512 9.99989C42.4512 10.7093 42.6834 11.2858 43.1478 11.7304C43.6121 12.1745 44.1622 12.3964 44.7985 12.3964C45.4735 12.3964 46.0362 12.1733 46.4867 11.7265C46.7792 11.4354 46.9483 11.0308 46.9936 10.5112H44.7985V9.79051H47.7275C47.7558 9.94722 47.7696 10.0976 47.7696 10.2433" fill="white"/>
<path id="Vector_4" d="M47.7697 10.2434H47.669C47.6682 11.0622 47.4273 11.6981 46.9479 12.1754L46.9469 12.1762L46.9464 12.1771C46.3959 12.7484 45.6882 13.0328 44.7985 13.0341C43.9494 13.0328 43.2387 12.7453 42.6452 12.1625C42.053 11.5786 41.7602 10.8656 41.7591 10C41.7602 9.13405 42.053 8.42153 42.6452 7.83795C43.2387 7.25473 43.9494 6.96683 44.7985 6.96562C45.2184 6.96562 45.6183 7.04697 45.9996 7.20903C46.3813 7.37235 46.6828 7.58636 46.9074 7.85206L46.9846 7.78753L46.9134 7.71683L46.3821 8.24491L46.4533 8.31524L46.5309 8.25124C46.1121 7.75315 45.5243 7.50205 44.7986 7.50354C44.1387 7.50273 43.5582 7.73679 43.0781 8.19776C42.5933 8.66022 42.3497 9.26919 42.3506 10C42.3497 10.7309 42.5933 11.3399 43.0781 11.8024C43.5582 12.2633 44.1387 12.4974 44.7985 12.4965C45.4958 12.4978 46.0901 12.2629 46.558 11.7973C46.8704 11.4863 47.0476 11.0556 47.094 10.5199L47.1034 10.4114H44.8993V9.89065H47.7276V9.79065L47.6283 9.80823C47.6559 9.95986 47.6689 10.1039 47.6689 10.2434H47.8704C47.8704 10.0915 47.8562 9.93523 47.8267 9.77277L47.8118 9.69066H44.6978V10.6113H46.9936V10.5114L46.8933 10.5028C46.8489 11.0059 46.6875 11.3849 46.4155 11.656C45.9827 12.0841 45.4514 12.2953 44.7986 12.2966C44.1859 12.2957 43.6661 12.0864 43.2178 11.6586C42.774 11.2325 42.5532 10.6883 42.552 10C42.5532 9.31175 42.774 8.76763 43.2178 8.34144C43.6661 7.91373 44.1859 7.70434 44.7986 7.70353C45.4798 7.70515 45.9942 7.92856 46.3763 8.37973L46.4471 8.46333L47.0559 7.85827L47.1212 7.79346L47.0617 7.72344C46.8142 7.43055 46.4844 7.19806 46.0791 7.02548C45.673 6.85237 45.2445 6.76563 44.7986 6.76563C43.903 6.76486 43.1301 7.07735 42.5032 7.69575C41.874 8.31295 41.5568 9.08874 41.5577 10C41.5568 10.9109 41.874 11.6872 42.5036 12.3047C43.1301 12.9227 43.903 13.2349 44.7986 13.2341C45.7312 13.2349 46.5049 12.9274 47.0921 12.3152L47.0192 12.2461L47.0904 12.3169C47.6123 11.7993 47.8711 11.1001 47.8705 10.2434H47.7697H47.7697ZM52.4132 7.73715H49.6605V9.63956H52.1429V10.3605H49.6605V12.2629H52.4132V13H48.8845V7.00005H52.4132V7.73715Z" fill="white"/>
<path id="Vector_5" d="M52.4131 7.737V7.637H49.5597V9.73941H52.0421V10.2601L49.5597 10.2604V12.3628H52.3123V12.8999H48.9852V7.0999H52.3123V7.737H52.4131V7.637V7.737H52.5138V6.8999H48.7837V13.0999H52.5138V12.1628H49.7612V10.4604H52.2436V9.53941H49.7612V7.837H52.5138V7.737H52.4131ZM55.6884 12.9999H54.9112V7.73695H53.2229V6.99985H57.3766V7.73695H55.6884V12.9998" fill="white"/>
<path id="Vector_6" d="M55.6884 12.9999V12.8999H55.0119V7.637H53.3237V7.09994H57.2759V7.637H55.5877V12.9999H55.6884V12.8999V12.9999H55.7892V7.837H57.4773V6.8999H53.1223V7.83695H54.8104V13.0998H55.7892V12.9998H55.6884V12.9999ZM60.3819 12.9999V6.99985H61.1583V12.9998H60.3819" fill="white"/>
<path id="Vector_7" d="M60.3818 12.9999H60.4826V7.0999H61.0575V12.8999H60.3818V12.9999H60.4826H60.3818V13.0999H61.259V6.8999H60.2811V13.0999H60.3818V12.9999V12.9999ZM64.6035 12.9999H63.8263V7.73695H62.1381V6.99985H66.2917V7.73695H64.6035V12.9998" fill="white"/>
<path id="Vector_8" d="M64.6035 12.9999V12.8999H63.9271V7.637H62.239V7.09994H66.191V7.637H64.5028V12.9999H64.6035V12.8999V12.9999H64.7043V7.837H66.3925V6.8999H62.0375V7.83695H63.7256V13.0998H64.7043V12.9998H64.6035V12.9999ZM70.2962 11.7222C70.7436 12.1718 71.291 12.3964 71.9384 12.3964C72.5857 12.3964 73.1334 12.1718 73.5801 11.7222C74.0279 11.2726 74.2523 10.6979 74.2523 9.99989C74.2523 9.30194 74.0279 8.72722 73.5801 8.27761C73.1334 7.82801 72.5857 7.60339 71.9384 7.60339C71.291 7.60339 70.7436 7.82801 70.2962 8.27761C69.8495 8.72722 69.6253 9.30189 69.6253 9.99989C69.6253 10.6979 69.8495 11.2726 70.2962 11.7222ZM74.1547 12.2245C73.5604 12.8311 72.8214 13.1339 71.9384 13.1339C71.0545 13.1339 70.3158 12.8311 69.7229 12.2245C69.1282 11.6186 68.8323 10.8769 68.8323 9.99989C68.8323 9.12289 69.1282 8.38107 69.7229 7.77529C70.3159 7.16857 71.0545 6.86548 71.9384 6.86548C72.8167 6.86548 73.5537 7.17019 74.1508 7.7792C74.7469 8.38817 75.0452 9.12837 75.0452 9.99989C75.0452 10.8769 74.7476 11.6186 74.1547 12.2245Z" fill="white"/>
<path id="Vector_9" d="M70.2963 11.7224L70.2246 11.7927C70.6886 12.2602 71.2675 12.4978 71.9384 12.4966C72.609 12.4978 73.1886 12.2602 73.6518 11.7927C74.1189 11.3246 74.3538 10.7192 74.3531 10C74.3537 9.28097 74.1189 8.67546 73.6518 8.20743C73.1886 7.73984 72.609 7.50237 71.9384 7.50354C71.2675 7.50237 70.6886 7.73984 70.2246 8.20743C69.7587 8.67546 69.5234 9.28097 69.5246 10C69.5234 10.7191 69.7587 11.3246 70.2246 11.7927L70.2963 11.7224L70.3679 11.652C69.9406 11.2204 69.7269 10.6774 69.7261 10C69.7269 9.32276 69.9406 8.77977 70.3679 8.34805C70.7991 7.91647 71.3143 7.70474 71.9384 7.70358C72.5621 7.70474 73.0784 7.91647 73.5086 8.34805C73.9367 8.77977 74.1504 9.32276 74.1512 10C74.1504 10.6773 73.9367 11.2204 73.5086 11.652C73.0784 12.0837 72.5622 12.2953 71.9384 12.2965C71.3143 12.2953 70.7991 12.0837 70.3679 11.652L70.2963 11.7224ZM74.1547 12.2246L74.0827 12.1552C73.505 12.7427 72.7986 13.0329 71.9384 13.0341C71.0778 13.0328 70.3714 12.7427 69.7949 12.1552L69.7921 12.152L69.7949 12.1552C69.2184 11.5657 68.934 10.8548 68.9331 10C68.934 9.14533 69.2184 8.43443 69.7949 7.84496C70.3714 7.25743 71.0778 6.96684 71.9384 6.96567C72.7931 6.96684 73.4979 7.25865 74.0787 7.84923C74.6572 8.44144 74.9433 9.15122 74.9445 10C74.9433 10.8548 74.658 11.5657 74.0827 12.1552L74.1547 12.2246L74.2272 12.2941C74.8378 11.6715 75.1467 10.8993 75.146 10C75.1468 9.10596 74.8367 8.33524 74.2231 7.70987C73.6093 7.08202 72.8404 6.76455 71.9384 6.76563C71.0318 6.76455 70.2605 7.08054 69.6505 7.70596V7.70551C69.0386 8.32855 68.7308 9.10084 68.7317 10C68.7308 10.8993 69.0386 11.6715 69.6505 12.2945L69.6532 12.2974L69.6505 12.2941C70.2605 12.9195 71.0318 13.2349 71.9384 13.2341C72.8447 13.2349 73.616 12.9195 74.2272 12.2941L74.1547 12.2246ZM76.1353 13.0001V7H77.0805L80.0181 11.6676H80.0516L80.0181 10.5113V7H80.7954V13H79.9847L76.9113 8.10622H76.8778L76.9113 9.2629V13H76.1353" fill="white"/>
<path id="Vector_10" d="M76.1352 12.9999H76.236V7.0999H77.0246L79.9622 11.7675H80.155L80.1188 10.5097V7.09994H80.6945V12.8999H80.0405L76.9672 8.00611H76.7743L76.8105 9.26441V12.8999H76.1352V12.9999H76.236H76.1352V13.0999H77.012V9.26122L76.9785 8.10342L76.8778 8.10611V8.20611H76.9112V8.10611L76.8258 8.15928L79.9287 13.0999H80.896V6.8999H79.9173V10.5124L79.9508 11.6702L80.0515 11.6675V11.5675H80.0181V11.6675L80.1035 11.6144L77.1363 6.8999H76.0345V13.0999H76.1353V12.9999L76.1352 12.9999ZM107.728 29.9999H109.608V17.4987H107.728L107.728 29.9999ZM124.66 22.0019L122.505 27.4218H122.44L120.204 22.0019H118.179L121.533 29.5772L119.621 33.7909H121.582L126.75 22.0019L124.66 22.0019ZM113.999 28.58C113.383 28.58 112.524 28.2745 112.524 27.5183C112.524 26.5534 113.594 26.1835 114.517 26.1835C115.344 26.1835 115.732 26.3604 116.235 26.6019C116.089 27.7597 115.084 28.58 113.999 28.58ZM114.226 21.7284C112.865 21.7284 111.456 22.3237 110.872 23.6425L112.54 24.3339C112.897 23.6425 113.561 23.4171 114.258 23.4171C115.23 23.4171 116.219 23.9964 116.235 25.0257V25.1542C115.894 24.9612 115.166 24.6718 114.274 24.6718C112.476 24.6718 110.645 25.6526 110.645 27.4862C110.645 29.1589 112.119 30.2366 113.772 30.2366C115.036 30.2366 115.732 29.6737 116.17 29.0144H116.235V29.9792H118.049V25.1862C118.049 22.9671 116.381 21.7284 114.226 21.7284ZM102.608 23.5237H99.9348V19.2386H102.608C104.014 19.2386 104.812 20.3936 104.812 21.3811C104.812 22.3499 104.014 23.5237 102.608 23.5237ZM102.56 17.4987H98.056V29.9999H99.9348V25.2636H102.56C104.643 25.2636 106.691 23.7663 106.691 21.3811C106.691 18.996 104.643 17.4987 102.56 17.4987ZM77.9985 28.5823C76.6999 28.5823 75.6126 27.503 75.6126 26.0206C75.6126 24.5226 76.6999 23.4269 77.9985 23.4269C79.2807 23.4269 80.2868 24.5226 80.2868 26.0206C80.2868 27.503 79.2807 28.5823 77.9986 28.5823H77.9985ZM80.157 22.7019H80.092C79.6702 22.2026 78.8583 21.7515 77.836 21.7515C75.6937 21.7515 73.73 23.6202 73.73 26.0206C73.73 28.405 75.6936 30.2577 77.836 30.2577C78.8583 30.2577 79.6702 29.8065 80.092 29.2913H80.157V29.9034C80.157 31.5308 79.2807 32.4007 77.8687 32.4007C76.7164 32.4007 76.0022 31.5788 75.7098 30.8862L74.0709 31.5628C74.5415 32.6905 75.7913 34.0761 77.8687 34.0761C80.0759 34.0761 81.9423 32.787 81.9423 29.6456V22.0093H80.157V22.7019ZM83.2406 29.9999H85.1232V17.4983H83.2406V29.9999ZM87.8986 25.8757C87.8498 24.2323 89.1807 23.3948 90.1382 23.3948C90.8853 23.3948 91.5179 23.7651 91.7285 24.2972L87.8986 25.8757ZM93.7413 24.4581C93.3846 23.5073 92.2966 21.7515 90.0732 21.7515C87.866 21.7515 86.0322 23.4753 86.0322 26.0046C86.0322 28.389 87.8498 30.2577 90.2842 30.2577C92.2483 30.2577 93.3846 29.0655 93.8551 28.3729L92.3944 27.4061C91.9078 28.1151 91.2419 28.5823 90.2842 28.5823C89.3267 28.5823 88.6452 28.1472 88.2067 27.2936L93.9357 24.9413L93.7413 24.4581ZM48.0975 23.0565V24.8608H52.4469C52.3171 25.8757 51.9763 26.6167 51.4568 27.1323C50.8241 27.7608 49.834 28.4534 48.0974 28.4534C45.4194 28.4534 43.326 26.3108 43.326 23.6526C43.326 20.9944 45.4195 18.8515 48.0975 18.8515C49.542 18.8515 50.5966 19.4155 51.3758 20.1405L52.6579 18.8679C51.5706 17.8366 50.126 17.0472 48.0975 17.0472C44.4294 17.0472 41.3458 20.0116 41.3458 23.6526C41.3458 27.2936 44.4294 30.2577 48.0975 30.2577C50.0776 30.2577 51.5706 29.6136 52.739 28.405C53.94 27.2128 54.3135 25.5374 54.3135 24.1843C54.3135 23.7651 54.2811 23.3788 54.2158 23.0565H48.0975ZM59.2584 28.5823C57.9598 28.5823 56.8398 27.519 56.8398 26.0046C56.8398 24.4741 57.9598 23.4269 59.2584 23.4269C60.5566 23.4269 61.6765 24.4741 61.6765 26.0046C61.6765 27.519 60.5566 28.5823 59.2584 28.5823ZM59.2584 21.7515C56.8886 21.7515 54.9572 23.5397 54.9572 26.0046C54.9572 28.4534 56.8886 30.2577 59.2584 30.2577C61.6277 30.2577 63.5591 28.4534 63.5591 26.0046C63.5591 23.5397 61.6277 21.7515 59.2584 21.7515ZM68.6406 28.5823C67.3425 28.5823 66.2224 27.519 66.2224 26.0046C66.2224 24.4741 67.3425 23.4269 68.6406 23.4269C69.9389 23.4269 71.0588 24.4741 71.0588 26.0046C71.0588 27.519 69.9389 28.5823 68.6406 28.5823H68.6406ZM68.6406 21.7515C66.2709 21.7515 64.3399 23.5397 64.3399 26.0046C64.3399 28.4534 66.2709 30.2577 68.6406 30.2577C71.01 30.2577 72.9415 28.4534 72.9415 26.0046C72.9415 23.5397 71.01 21.7515 68.6406 21.7515H68.6406Z" fill="white"/>
<path id="Vector_11" d="M10.5865 7.61124C10.2484 7.91402 10.0466 8.41903 10.0466 9.0894V8.93785V31.059V30.9132C10.0466 31.5323 10.2197 32.0104 10.5129 32.3183L10.5877 32.3894V32.3897C10.8249 32.6023 11.1292 32.7151 11.4779 32.7148C11.8186 32.7148 12.2019 32.6069 12.6065 32.3793L27.2292 24.132L32.252 21.2988C32.8899 20.939 33.248 20.475 33.3079 20.0023V20.0003C33.248 19.5266 32.8899 19.0628 32.252 18.7031L27.2288 15.8702L12.6065 7.62293C12.2011 7.39484 11.8175 7.28662 11.4759 7.28662C11.1276 7.28662 10.8238 7.39911 10.5866 7.61124H10.5865Z" fill="#00C1FF"/>
<path id="Vector_12" d="M10.5877 32.3894L10.5129 32.3183C10.2197 32.0104 10.0466 31.5323 10.0466 30.9132V31.0589V8.94331V9.08937C10.0466 8.41901 10.2484 7.914 10.5865 7.61122L23.0681 20.0007L10.5877 32.3894Z" fill="url(#paint0_linear_64_868)"/>
<path id="Vector_13" d="M27.2291 24.1321L23.068 20.0009L27.2287 15.8704L32.2519 18.7032C32.8898 19.063 33.2479 19.5267 33.3078 20.0005V20.0024C33.2479 20.4751 32.8898 20.9392 32.2519 21.2989L27.2291 24.132" fill="url(#paint1_linear_64_868)"/>
<path id="Vector_14" d="M11.4777 32.7148C11.1291 32.7152 10.8248 32.6023 10.5876 32.3898V32.3895L23.068 20.0008L27.2291 24.132L12.6063 32.3793C12.2018 32.607 11.8184 32.7148 11.4777 32.7148Z" fill="url(#paint2_linear_64_868)"/>
<path id="Vector_15" d="M23.0681 20.0007L10.5864 7.61124C10.8237 7.39911 11.1275 7.28662 11.4758 7.28662C11.8174 7.28662 12.201 7.3948 12.6064 7.62292L27.2288 15.8702L23.068 20.0007" fill="url(#paint3_linear_64_868)"/>
<path id="Vector_16" d="M11.4783 32.8613C11.1297 32.8613 10.825 32.7484 10.5878 32.5359L10.5874 32.5363C10.5864 32.5353 10.5854 32.5344 10.5842 32.5336L10.5193 32.4707C10.5173 32.4687 10.5154 32.4664 10.513 32.4641L10.5878 32.3898C10.8251 32.6023 11.1293 32.7152 11.478 32.7148C11.8187 32.7148 12.202 32.607 12.6066 32.3793L27.2293 24.132L27.323 24.2251L27.2281 24.2785L12.6065 32.5254C12.2378 32.7328 11.8872 32.841 11.5704 32.859C11.5397 32.8605 11.509 32.8613 11.4783 32.8613" fill="url(#paint4_linear_64_868)"/>
<path id="Vector_17" d="M10.5129 32.4641C10.2197 32.1563 10.0466 31.6785 10.0466 31.059V30.9133C10.0466 31.5324 10.2197 32.0105 10.5129 32.3184L10.5877 32.3895L10.5129 32.4641Z" fill="url(#paint5_linear_64_868)"/>
<path id="Vector_18" d="M27.3228 24.2251L27.2291 24.132L32.2519 21.2989C32.8898 20.9392 33.2479 20.4751 33.3078 20.0024C33.3078 20.1758 33.2688 20.3493 33.1913 20.5181C33.0351 20.8583 32.7219 21.1798 32.2519 21.445L27.3228 24.2251" fill="url(#paint6_linear_64_868)"/>
<path id="Vector_19" d="M33.3078 20.0005C33.2479 19.5267 32.8898 19.063 32.2519 18.7032L27.2286 15.8704L27.3223 15.7773H27.3227L32.2519 18.5575C32.9552 18.9544 33.3073 19.4774 33.3078 20.0005Z" fill="url(#paint7_linear_64_868)"/>
<path id="Vector_20" d="M10.0466 9.0896V8.9368C10.0466 8.8817 10.0481 8.82781 10.051 8.7755V8.77312C10.051 8.7724 10.051 8.77163 10.0513 8.77082V8.76494C10.0816 8.23169 10.2484 7.81575 10.5129 7.53801L10.5865 7.6114C10.2484 7.91422 10.0466 8.41924 10.0466 9.0896Z" fill="url(#paint8_linear_64_868)"/>
<path id="Vector_21" d="M27.2288 15.8704L12.6065 7.62298C12.2011 7.3949 11.8175 7.28672 11.4759 7.28672C11.1276 7.28672 10.8238 7.39921 10.5866 7.61134L10.5129 7.5379C10.5359 7.51373 10.5598 7.49042 10.5846 7.46802C10.5853 7.46721 10.5866 7.4664 10.5873 7.46564C10.8227 7.25513 11.1233 7.14264 11.4684 7.14061H11.4759C11.8175 7.14061 12.2011 7.24884 12.6065 7.47701L27.3229 15.777L27.3225 15.7773L27.2288 15.8704Z" fill="url(#paint9_linear_64_868)"/>
</g>
</g>
<defs>
<linearGradient id="paint0_linear_64_868" x1="18.0231" y1="8.70957" x2="7.3637" y2="19.4826" gradientUnits="userSpaceOnUse">
<stop stop-color="#00A0FF"/>
<stop offset="0.00657" stop-color="#00A1FF"/>
<stop offset="0.2601" stop-color="#00BEFF"/>
<stop offset="0.5122" stop-color="#00D2FF"/>
<stop offset="0.7604" stop-color="#00DFFF"/>
<stop offset="1" stop-color="#00E3FF"/>
</linearGradient>
<linearGradient id="paint1_linear_64_868" x1="34.085" y1="19.9295" x2="9.70876" y2="19.9295" gradientUnits="userSpaceOnUse">
<stop stop-color="#FFE000"/>
<stop offset="0.4087" stop-color="#FFBD00"/>
<stop offset="0.7754" stop-color="#FFA500"/>
<stop offset="1" stop-color="#FF9C00"/>
</linearGradient>
<linearGradient id="paint2_linear_64_868" x1="25.0199" y1="23.9286" x2="6.95551" y2="42.0522" gradientUnits="userSpaceOnUse">
<stop stop-color="#FF3A44"/>
<stop offset="1" stop-color="#C31162"/>
</linearGradient>
<linearGradient id="paint3_linear_64_868" x1="7.36956" y1="5.77444" x2="15.4203" y2="13.864" gradientUnits="userSpaceOnUse">
<stop stop-color="#32A071"/>
<stop offset="0.0685" stop-color="#2DA771"/>
<stop offset="0.4762" stop-color="#15CF74"/>
<stop offset="0.8009" stop-color="#06E775"/>
<stop offset="1" stop-color="#00F076"/>
</linearGradient>
<linearGradient id="paint4_linear_64_868" x1="25.011" y1="26.7942" x2="10.5452" y2="41.4145" gradientUnits="userSpaceOnUse">
<stop stop-color="#CC2E36"/>
<stop offset="1" stop-color="#9C0E4E"/>
</linearGradient>
<linearGradient id="paint5_linear_64_868" x1="11.7094" y1="8.70963" x2="2.31858" y2="18.2008" gradientUnits="userSpaceOnUse">
<stop stop-color="#008DE0"/>
<stop offset="0.00657" stop-color="#008DE0"/>
<stop offset="0.2601" stop-color="#00A7E0"/>
<stop offset="0.5122" stop-color="#00B8E0"/>
<stop offset="0.7604" stop-color="#00C4E0"/>
<stop offset="1" stop-color="#00C7E0"/>
</linearGradient>
<linearGradient id="paint6_linear_64_868" x1="34.085" y1="20.0014" x2="9.70873" y2="20.0014" gradientUnits="userSpaceOnUse">
<stop stop-color="#E0C500"/>
<stop offset="0.4087" stop-color="#E0A600"/>
<stop offset="0.7754" stop-color="#E09100"/>
<stop offset="1" stop-color="#E08900"/>
</linearGradient>
<linearGradient id="paint7_linear_64_868" x1="34.085" y1="20.0015" x2="9.70873" y2="20.0015" gradientUnits="userSpaceOnUse">
<stop stop-color="#FFE840"/>
<stop offset="0.4087" stop-color="#FFCE40"/>
<stop offset="0.7754" stop-color="#FFBC40"/>
<stop offset="1" stop-color="#FFB540"/>
</linearGradient>
<linearGradient id="paint8_linear_64_868" x1="11.6991" y1="8.72678" x2="2.65048" y2="17.4757" gradientUnits="userSpaceOnUse">
<stop stop-color="#40B8FF"/>
<stop offset="0.00657" stop-color="#40B9FF"/>
<stop offset="0.2601" stop-color="#40CEFF"/>
<stop offset="0.5122" stop-color="#40DDFF"/>
<stop offset="0.7604" stop-color="#40E7FF"/>
<stop offset="1" stop-color="#40EAFF"/>
</linearGradient>
<linearGradient id="paint9_linear_64_868" x1="7.35146" y1="8.39468" x2="13.8111" y2="14.9233" gradientUnits="userSpaceOnUse">
<stop stop-color="#65B895"/>
<stop offset="0.0685" stop-color="#62BD95"/>
<stop offset="0.4762" stop-color="#50DB97"/>
<stop offset="0.8009" stop-color="#44ED98"/>
<stop offset="1" stop-color="#40F498"/>
</linearGradient>
</defs>
</svg>
