<svg width="48" height="48" viewBox="0 0 48 48" fill="none" xmlns="http://www.w3.org/2000/svg">
<path d="M45.75 8.99986H40.4805C40.0199 8.36616 39.3672 7.89793 38.6194 7.66472C37.8715 7.43151 37.0684 7.44576 36.3293 7.70536C34.9013 5.78031 33.0424 4.21638 30.9014 3.13882C28.7604 2.06125 26.3969 1.5 24 1.5C21.6031 1.5 19.2396 2.06125 17.0986 3.13882C14.9576 4.21638 13.0987 5.78031 11.6707 7.70536C10.9316 7.44576 10.1285 7.43151 9.38062 7.66472C8.63275 7.89793 7.98006 8.36616 7.5195 8.99986H2.25C2.05109 8.99986 1.86032 9.07888 1.71967 9.21953C1.57902 9.36018 1.5 9.55095 1.5 9.74986V38.2499C1.5 38.4488 1.57902 38.6395 1.71967 38.7802C1.86032 38.9208 2.05109 38.9999 2.25 38.9999H21.75V41.9999H17.25C17.0511 41.9999 16.8604 42.0789 16.7197 42.2196L13.7197 45.2196C13.6149 45.3245 13.5435 45.4581 13.5146 45.6036C13.4856 45.7491 13.5005 45.8998 13.5572 46.0369C13.614 46.1739 13.7101 46.291 13.8334 46.3734C13.9567 46.4558 14.1017 46.4998 14.25 46.4999H33.75C33.8983 46.4998 34.0433 46.4558 34.1666 46.3734C34.2899 46.291 34.386 46.1739 34.4428 46.0369C34.4995 45.8998 34.5144 45.7491 34.4854 45.6036C34.4565 45.4581 34.3851 45.3245 34.2803 45.2196L31.2803 42.2196C31.1396 42.0789 30.9489 41.9999 30.75 41.9999H26.25V38.9999H45.75C45.9489 38.9999 46.1397 38.9208 46.2803 38.7802C46.421 38.6395 46.5 38.4488 46.5 38.2499V9.74986C46.5 9.55095 46.421 9.36018 46.2803 9.21953C46.1397 9.07888 45.9489 8.99986 45.75 8.99986ZM39.75 11.2499C39.75 11.6949 39.618 12.1299 39.3708 12.4999C39.1236 12.8699 38.7722 13.1583 38.361 13.3286C37.9499 13.4989 37.4975 13.5434 37.061 13.4566C36.6246 13.3698 36.2237 13.1555 35.909 12.8408C35.5943 12.5262 35.3801 12.1253 35.2932 11.6888C35.2064 11.2524 35.251 10.8 35.4213 10.3888C35.5916 9.97769 35.88 9.62628 36.25 9.37905C36.62 9.13182 37.055 8.99986 37.5 8.99986C38.0967 8.99986 38.669 9.23691 39.091 9.65887C39.5129 10.0808 39.75 10.6531 39.75 11.2499ZM24 2.99986C26.1337 3.00032 28.2385 3.49301 30.1507 4.43961C32.0629 5.38621 33.7309 6.7612 35.025 8.45761C34.6301 8.8024 34.3122 9.22644 34.0919 9.70217C33.8717 10.1779 33.754 10.6946 33.7466 11.2188C33.7392 11.743 33.8422 12.2629 34.0489 12.7447C34.2556 13.2264 34.5614 13.6593 34.9464 14.0151C35.3313 14.371 35.7869 14.6418 36.2834 14.81C36.78 14.9781 37.3063 15.04 37.8283 14.9914C38.3503 14.9428 38.8562 14.7848 39.3131 14.5279C39.7701 14.2709 40.1678 13.9206 40.4805 13.4999H42V34.4999H29.085L27.9502 29.9594C28.107 29.9177 28.2457 29.8258 28.3451 29.6976C28.4444 29.5693 28.4988 29.412 28.5 29.2499V26.9834C28.8944 26.9443 29.2715 26.8017 29.5931 26.57C29.9148 26.3384 30.1695 26.0258 30.3315 25.6641L32.5815 20.5986C32.7423 20.2365 32.8047 19.8384 32.7622 19.4445C32.7198 19.0506 32.5742 18.6749 32.34 18.3554L24.6052 7.80661C24.5323 7.71627 24.4402 7.6434 24.3354 7.59334C24.2307 7.54327 24.1161 7.51729 24 7.51729C23.8839 7.51729 23.7693 7.54327 23.6646 7.59334C23.5598 7.6434 23.4677 7.71627 23.3948 7.80661L15.6593 18.3554C15.4254 18.6752 15.2799 19.051 15.2375 19.445C15.1951 19.8389 15.2573 20.2371 15.4177 20.5994L17.6677 25.6641C17.8298 26.0259 18.0847 26.3385 18.4064 26.5702C18.7282 26.8019 19.1054 26.9444 19.5 26.9834V29.2499C19.5012 29.412 19.5556 29.5693 19.6549 29.6976C19.7543 29.8258 19.893 29.9177 20.0497 29.9594L18.915 34.4999H6V13.4999H7.5195C7.83218 13.9206 8.22992 14.2709 8.68686 14.5279C9.1438 14.7848 9.64971 14.9428 10.1717 14.9914C10.6937 15.04 11.22 14.9781 11.7166 14.81C12.2131 14.6418 12.6687 14.371 13.0536 14.0151C13.4386 13.6593 13.7444 13.2264 13.9511 12.7447C14.1578 12.2629 14.2608 11.743 14.2534 11.2188C14.246 10.6946 14.1283 10.1779 13.9081 9.70217C13.6878 9.22644 13.3699 8.8024 12.975 8.45761C14.2691 6.7612 15.9371 5.38621 17.8493 4.43961C19.7615 3.49301 21.8663 3.00032 24 2.99986ZM24 17.9999C24.2967 17.9999 24.5867 18.0878 24.8334 18.2527C25.08 18.4175 25.2723 18.6517 25.3858 18.9258C25.4994 19.1999 25.5291 19.5015 25.4712 19.7925C25.4133 20.0835 25.2704 20.3507 25.0607 20.5605C24.8509 20.7703 24.5836 20.9132 24.2926 20.971C24.0017 21.0289 23.7001 20.9992 23.426 20.8857C23.1519 20.7721 22.9176 20.5799 22.7528 20.3332C22.588 20.0865 22.5 19.7965 22.5 19.4999C22.5 19.102 22.658 18.7205 22.9393 18.4392C23.2206 18.1579 23.6022 17.9999 24 17.9999ZM23.25 16.6064C22.543 16.7889 21.9269 17.223 21.517 17.8274C21.1072 18.4317 20.9319 19.1647 21.0239 19.8891C21.1159 20.6135 21.4689 21.2794 22.0168 21.7621C22.5647 22.2448 23.2698 22.5111 24 22.5111C24.7302 22.5111 25.4353 22.2448 25.9832 21.7621C26.5311 21.2794 26.8841 20.6135 26.9761 19.8891C27.0681 19.1647 26.8928 18.4317 26.483 17.8274C26.0731 17.223 25.457 16.7889 24.75 16.6064V10.5411L31.131 19.2411C31.2094 19.3479 31.2582 19.4735 31.2723 19.6053C31.2864 19.737 31.2653 19.8701 31.2113 19.9911L28.9613 25.0559C28.9021 25.1883 28.8057 25.3008 28.6839 25.3796C28.5621 25.4584 28.4201 25.5002 28.275 25.4999H19.725C19.5799 25.4999 19.4379 25.4578 19.3162 25.3787C19.1945 25.2997 19.0984 25.187 19.0395 25.0544L16.7895 19.9904C16.7354 19.8694 16.7144 19.7363 16.7285 19.6045C16.7426 19.4728 16.7913 19.3471 16.8698 19.2404L23.25 10.5411V16.6064ZM27 26.9999V28.4999H21V26.9999H27ZM21.5858 29.9999H26.4143L27.5393 34.4999H20.4608L21.5858 29.9999ZM10.5 8.99986C10.945 8.99986 11.38 9.13182 11.75 9.37905C12.12 9.62628 12.4084 9.97769 12.5787 10.3888C12.749 10.8 12.7936 11.2524 12.7068 11.6888C12.62 12.1253 12.4057 12.5262 12.091 12.8408C11.7763 13.1555 11.3754 13.3698 10.939 13.4566C10.5025 13.5434 10.0501 13.4989 9.63896 13.3286C9.22783 13.1583 8.87643 12.8699 8.62919 12.4999C8.38196 12.1299 8.25 11.6949 8.25 11.2499C8.25 10.6531 8.48705 10.0808 8.90901 9.65887C9.33097 9.23691 9.90326 8.99986 10.5 8.99986ZM31.9395 44.9999H16.0605L17.5605 43.4999H30.4395L31.9395 44.9999ZM24.75 41.9999H23.25V38.9999H24.75V41.9999ZM45 37.4999H3V10.4999H6.825C6.72398 10.9948 6.72398 11.505 6.825 11.9999H5.25C5.05109 11.9999 4.86032 12.0789 4.71967 12.2195C4.57902 12.3602 4.5 12.5509 4.5 12.7499V35.2499C4.5 35.4488 4.57902 35.6395 4.71967 35.7802C4.86032 35.9208 5.05109 35.9999 5.25 35.9999H42.75C42.9489 35.9999 43.1397 35.9208 43.2803 35.7802C43.421 35.6395 43.5 35.4488 43.5 35.2499V12.7499C43.5 12.5509 43.421 12.3602 43.2803 12.2195C43.1397 12.0789 42.9489 11.9999 42.75 11.9999H41.175C41.276 11.505 41.276 10.9948 41.175 10.4999H45V37.4999Z" fill="#2D66EE"/>
<path d="M11.25 28.5H8.25C8.05109 28.5 7.86032 28.579 7.71967 28.7197C7.57902 28.8603 7.5 29.0511 7.5 29.25V32.25C7.5 32.4489 7.57902 32.6397 7.71967 32.7803C7.86032 32.921 8.05109 33 8.25 33H11.25C11.4489 33 11.6397 32.921 11.7803 32.7803C11.921 32.6397 12 32.4489 12 32.25V29.25C12 29.0511 11.921 28.8603 11.7803 28.7197C11.6397 28.579 11.4489 28.5 11.25 28.5ZM10.5 31.5H9V30H10.5V31.5Z" fill="#2D66EE"/>
<path d="M11.25 22.5H8.25C8.05109 22.5 7.86032 22.579 7.71967 22.7197C7.57902 22.8603 7.5 23.0511 7.5 23.25V26.25C7.5 26.4489 7.57902 26.6397 7.71967 26.7803C7.86032 26.921 8.05109 27 8.25 27H11.25C11.4489 27 11.6397 26.921 11.7803 26.7803C11.921 26.6397 12 26.4489 12 26.25V23.25C12 23.0511 11.921 22.8603 11.7803 22.7197C11.6397 22.579 11.4489 22.5 11.25 22.5ZM10.5 25.5H9V24H10.5V25.5Z" fill="#2D66EE"/>
<path d="M11.25 16.5H8.25C8.05109 16.5 7.86032 16.579 7.71967 16.7197C7.57902 16.8603 7.5 17.0511 7.5 17.25V20.25C7.5 20.4489 7.57902 20.6397 7.71967 20.7803C7.86032 20.921 8.05109 21 8.25 21H11.25C11.4489 21 11.6397 20.921 11.7803 20.7803C11.921 20.6397 12 20.4489 12 20.25V17.25C12 17.0511 11.921 16.8603 11.7803 16.7197C11.6397 16.579 11.4489 16.5 11.25 16.5ZM10.5 19.5H9V18H10.5V19.5Z" fill="#2D66EE"/>
<path d="M36.75 33H39.75C39.9489 33 40.1397 32.921 40.2803 32.7803C40.421 32.6397 40.5 32.4489 40.5 32.25V29.25C40.5 29.0511 40.421 28.8603 40.2803 28.7197C40.1397 28.579 39.9489 28.5 39.75 28.5H36.75C36.5511 28.5 36.3603 28.579 36.2197 28.7197C36.079 28.8603 36 29.0511 36 29.25V32.25C36 32.4489 36.079 32.6397 36.2197 32.7803C36.3603 32.921 36.5511 33 36.75 33ZM37.5 30H39V31.5H37.5V30Z" fill="#2D66EE"/>
<path d="M36.75 27H39.75C39.9489 27 40.1397 26.921 40.2803 26.7803C40.421 26.6397 40.5 26.4489 40.5 26.25V23.25C40.5 23.0511 40.421 22.8603 40.2803 22.7197C40.1397 22.579 39.9489 22.5 39.75 22.5H36.75C36.5511 22.5 36.3603 22.579 36.2197 22.7197C36.079 22.8603 36 23.0511 36 23.25V26.25C36 26.4489 36.079 26.6397 36.2197 26.7803C36.3603 26.921 36.5511 27 36.75 27ZM37.5 24H39V25.5H37.5V24Z" fill="#2D66EE"/>
<path d="M36.75 21H39.75C39.9489 21 40.1397 20.921 40.2803 20.7803C40.421 20.6397 40.5 20.4489 40.5 20.25V17.25C40.5 17.0511 40.421 16.8603 40.2803 16.7197C40.1397 16.579 39.9489 16.5 39.75 16.5H36.75C36.5511 16.5 36.3603 16.579 36.2197 16.7197C36.079 16.8603 36 17.0511 36 17.25V20.25C36 20.4489 36.079 20.6397 36.2197 20.7803C36.3603 20.921 36.5511 21 36.75 21ZM37.5 18H39V19.5H37.5V18Z" fill="#2D66EE"/>
</svg>
