<svg width="48" height="48" viewBox="0 0 48 48" fill="none" xmlns="http://www.w3.org/2000/svg">
<path d="M24 14.2498C24.5933 14.2498 25.1734 14.0738 25.6667 13.7442C26.1601 13.4145 26.5446 12.946 26.7716 12.3978C26.9987 11.8496 27.0581 11.2464 26.9424 10.6645C26.8266 10.0825 26.5409 9.54799 26.1213 9.12844C25.7018 8.70888 25.1672 8.42316 24.5853 8.3074C24.0033 8.19165 23.4001 8.25106 22.852 8.47812C22.3038 8.70518 21.8352 9.0897 21.5056 9.58305C21.1759 10.0764 21 10.6564 21 11.2498C21 12.0454 21.3161 12.8085 21.8787 13.3711C22.4413 13.9337 23.2044 14.2498 24 14.2498ZM24 9.74976C24.2967 9.74976 24.5867 9.83773 24.8334 10.0026C25.08 10.1674 25.2723 10.4016 25.3858 10.6757C25.4994 10.9498 25.5291 11.2514 25.4712 11.5424C25.4133 11.8334 25.2704 12.1006 25.0607 12.3104C24.8509 12.5202 24.5836 12.6631 24.2926 12.7209C24.0017 12.7788 23.7001 12.7491 23.426 12.6356C23.1519 12.522 22.9176 12.3298 22.7528 12.0831C22.588 11.8364 22.5 11.5464 22.5 11.2498C22.5 10.8519 22.658 10.4704 22.9393 10.1891C23.2206 9.90779 23.6022 9.74976 24 9.74976Z" fill="#2D66EE"/>
<path d="M23.25 21.7498H24.75V23.2498H23.25V21.7498Z" fill="#2D66EE"/>
<path d="M23.25 24.7498H24.75V29.9998H23.25V24.7498Z" fill="#2D66EE"/>
<path d="M43.2375 42.2773C43.1677 42.1913 43.0797 42.1218 42.9799 42.0738C42.88 42.0258 42.7708 42.0005 42.66 41.9998H42V21.7498C42 21.5509 41.921 21.3601 41.7803 21.2195C41.6397 21.0788 41.4489 20.9998 41.25 20.9998H36.51L35.9925 17.1523C35.9775 17.0312 35.9327 16.9157 35.862 16.8162C35.7913 16.7167 35.697 16.6363 35.5875 16.5823L31.47 14.5198C31.1925 7.4473 24.765 1.91231 24.4875 1.67981C24.3517 1.56361 24.1788 1.49976 24 1.49976C23.8212 1.49976 23.6484 1.56361 23.5125 1.67981C23.235 1.91231 16.8075 7.4473 16.53 14.5198L12.4125 16.5823C12.3031 16.6363 12.2087 16.7167 12.1381 16.8162C12.0674 16.9157 12.0225 17.0312 12.0075 17.1523L11.49 20.9998H6.75001C6.5511 20.9998 6.36034 21.0788 6.21968 21.2195C6.07903 21.3601 6.00001 21.5509 6.00001 21.7498V41.9998H5.34001C5.22923 42.0005 5.11999 42.0258 5.02014 42.0738C4.92029 42.1218 4.8323 42.1913 4.76251 42.2773C4.6915 42.3641 4.64111 42.4659 4.61513 42.5751C4.58914 42.6842 4.58825 42.7978 4.61251 42.9073L5.26501 45.9073C5.3011 46.0753 5.3938 46.2258 5.52759 46.3337C5.66139 46.4416 5.82816 46.5002 6.00001 46.4998H42C42.1719 46.5002 42.3386 46.4416 42.4724 46.3337C42.6062 46.2258 42.6989 46.0753 42.735 45.9073L43.3875 42.9073C43.4118 42.7978 43.4109 42.6842 43.3849 42.5751C43.3589 42.4659 43.3085 42.3641 43.2375 42.2773ZM31.4625 16.1923L34.56 17.7448L35.895 27.7498H34.245L32.19 22.9573C32.1326 22.8217 32.0366 22.7061 31.9139 22.6247C31.7912 22.5434 31.6472 22.4999 31.5 22.4998H30.2475C30.9645 20.4696 31.374 18.3436 31.4625 16.1923ZM24 3.26981C25.5075 4.7023 30 9.4648 30 14.9998C30.057 17.9286 29.4385 20.8311 28.1925 23.4823C27.54 20.6848 25.935 18.7498 24 18.7498C22.065 18.7498 20.46 20.6848 19.8075 23.4823C18.5615 20.8311 17.9431 17.9286 18 14.9998C18 9.4723 22.4925 4.7098 24 3.26981ZM24 31.9873C23.0475 31.0798 21 28.8148 21 26.2498C21 22.7173 22.5825 20.2498 24 20.2498C25.4175 20.2498 27 22.7173 27 26.2498C27 28.8148 24.9525 31.0798 24 31.9873ZM31.5 31.4998V38.9998H16.5V31.4998H21.5475C22.1341 32.261 22.7976 32.9597 23.5275 33.5848C23.6618 33.6916 23.8284 33.7498 24 33.7498C24.1716 33.7498 24.3382 33.6916 24.4725 33.5848C25.2024 32.9597 25.8659 32.261 26.4525 31.4998H31.5ZM13.44 17.7448L16.5375 16.1923C16.626 18.3436 17.0356 20.4696 17.7525 22.4998H16.5C16.3528 22.4999 16.2089 22.5434 16.0862 22.6247C15.9635 22.7061 15.8674 22.8217 15.81 22.9573L13.755 27.7498H12.105L13.44 17.7448ZM7.50001 22.4998H11.295L10.5075 28.4023C10.4936 28.5082 10.5025 28.6158 10.5335 28.718C10.5646 28.8202 10.6171 28.9145 10.6875 28.9948C10.7572 29.0755 10.8436 29.1401 10.9407 29.1842C11.0378 29.2282 11.1434 29.2506 11.25 29.2498H14.25C14.3972 29.2497 14.5412 29.2062 14.6639 29.1249C14.7866 29.0435 14.8826 28.9279 14.94 28.7923L16.995 23.9998H18.3825C18.7018 24.6487 19.0809 25.2664 19.515 25.8448C19.5075 25.9798 19.5 26.1148 19.5 26.2498C19.5306 27.569 19.8944 28.859 20.5575 29.9998H15.75C15.5511 29.9998 15.3603 30.0788 15.2197 30.2195C15.079 30.3601 15 30.5509 15 30.7498V39.7498C15 39.9487 15.079 40.1395 15.2197 40.2801C15.3603 40.4208 15.5511 40.4998 15.75 40.4998H32.25C32.4489 40.4998 32.6397 40.4208 32.7803 40.2801C32.921 40.1395 33 39.9487 33 39.7498V30.7498C33 30.5509 32.921 30.3601 32.7803 30.2195C32.6397 30.0788 32.4489 29.9998 32.25 29.9998H27.4425C28.1056 28.859 28.4694 27.569 28.5 26.2498C28.5 26.1148 28.4925 25.9798 28.485 25.8448C28.9191 25.2664 29.2982 24.6487 29.6175 23.9998H31.005L33.06 28.7923C33.1174 28.9279 33.2135 29.0435 33.3362 29.1249C33.4589 29.2062 33.6028 29.2497 33.75 29.2498H36.75C36.8567 29.2506 36.9622 29.2282 37.0593 29.1842C37.1564 29.1401 37.2428 29.0755 37.3125 28.9948C37.383 28.9145 37.4355 28.8202 37.4665 28.718C37.4976 28.6158 37.5064 28.5082 37.4925 28.4023L36.705 22.4998H40.5V41.9998H26.25C26.0511 41.9998 25.8603 42.0788 25.7197 42.2195C25.579 42.3601 25.5 42.5509 25.5 42.7498H22.5C22.5 42.5509 22.421 42.3601 22.2803 42.2195C22.1397 42.0788 21.9489 41.9998 21.75 41.9998H7.50001V22.4998ZM41.4 44.9998H6.60001L6.27751 43.4998H21C21 43.6987 21.079 43.8895 21.2197 44.0301C21.3603 44.1708 21.5511 44.2498 21.75 44.2498H26.25C26.4489 44.2498 26.6397 44.1708 26.7803 44.0301C26.921 43.8895 27 43.6987 27 43.4998H41.7225L41.4 44.9998Z" fill="#2D66EE"/>
<path d="M34.5 32.9998H39V34.4998H34.5V32.9998Z" fill="#2D66EE"/>
<path d="M35.25 40.4998H38.25C38.4489 40.4998 38.6397 40.4207 38.7803 40.2801C38.921 40.1394 39 39.9487 39 39.7498V36.7498C39 36.5508 38.921 36.3601 38.7803 36.2194C38.6397 36.0788 38.4489 35.9998 38.25 35.9998H35.25C35.0511 35.9998 34.8603 36.0788 34.7197 36.2194C34.579 36.3601 34.5 36.5508 34.5 36.7498V39.7498C34.5 39.9487 34.579 40.1394 34.7197 40.2801C34.8603 40.4207 35.0511 40.4998 35.25 40.4998ZM36 37.4998H37.5V38.9998H36V37.4998Z" fill="#2D66EE"/>
<path d="M9 32.9998H13.5V34.4998H9V32.9998Z" fill="#2D66EE"/>
<path d="M12.75 35.9998H9.75C9.55109 35.9998 9.36032 36.0788 9.21967 36.2194C9.07902 36.3601 9 36.5508 9 36.7498V39.7498C9 39.9487 9.07902 40.1394 9.21967 40.2801C9.36032 40.4207 9.55109 40.4998 9.75 40.4998H12.75C12.9489 40.4998 13.1397 40.4207 13.2803 40.2801C13.421 40.1394 13.5 39.9487 13.5 39.7498V36.7498C13.5 36.5508 13.421 36.3601 13.2803 36.2194C13.1397 36.0788 12.9489 35.9998 12.75 35.9998ZM12 38.9998H10.5V37.4998H12V38.9998Z" fill="#2D66EE"/>
<path d="M33 6H34.5V4.5H36V3H34.5V1.5H33V3H31.5V4.5H33V6Z" fill="#2D66EE"/>
<path d="M39 10.5H40.5V9H42V7.5H40.5V6H39V7.5H37.5V9H39V10.5Z" fill="#2D66EE"/>
<path d="M13.5 6H15V4.5H16.5V3H15V1.5H13.5V3H12V4.5H13.5V6Z" fill="#2D66EE"/>
<path d="M7.5 10.5H9V9H10.5V7.5H9V6H7.5V7.5H6V9H7.5V10.5Z" fill="#2D66EE"/>
</svg>
