<svg width="24" height="24" viewBox="0 0 24 24" fill="none" xmlns="http://www.w3.org/2000/svg">
<g id="live_outline_24">
<g id="&#226;&#134;&#179; Icon Color">
<path fill-rule="evenodd" clip-rule="evenodd" d="M4.99965 4.99962C6.79021 3.20906 9.26645 2.09998 12 2.09998C14.7336 2.09998 17.2098 3.20906 19.0004 4.99962C20.7909 6.79018 21.9 9.26641 21.9 12C21.9 14.7335 20.7909 17.2098 19.0004 19.0003C17.2098 20.7909 14.7336 21.9 12 21.9C9.26644 21.9 6.79021 20.7909 4.99965 19.0003C3.20909 17.2098 2.10001 14.7335 2.10001 12C2.10001 9.26641 3.20909 6.79018 4.99965 4.99962ZM12 3.89998C9.763 3.89998 7.73924 4.80561 6.27244 6.27241C4.80564 7.73921 3.90001 9.76297 3.90001 12C3.90001 14.237 4.80564 16.2607 6.27244 17.7275C7.73924 19.1943 9.763 20.1 12 20.1C14.237 20.1 16.2608 19.1943 17.7276 17.7275C19.1944 16.2607 20.1 14.237 20.1 12C20.1 9.76297 19.1944 7.73921 17.7276 6.27241C16.2608 4.80561 14.237 3.89998 12 3.89998Z" fill="#2D66EE"/>
<path fill-rule="evenodd" clip-rule="evenodd" d="M7.82808 7.82805C8.89478 6.76134 10.371 6.09998 12 6.09998C13.629 6.09998 15.1052 6.76134 16.1719 7.82805C17.2386 8.89475 17.9 10.371 17.9 12C17.9 13.629 17.2386 15.1052 16.1719 16.1719C15.1052 17.2386 13.629 17.9 12 17.9C10.371 17.9 8.89478 17.2386 7.82808 16.1719C6.76137 15.1052 6.10001 13.629 6.10001 12C6.10001 10.371 6.76137 8.89475 7.82808 7.82805ZM12 7.89998C10.8676 7.89998 9.84381 8.3579 9.10087 9.10084C8.35793 9.84378 7.90001 10.8675 7.90001 12C7.90001 13.1324 8.35793 14.1562 9.10087 14.8991C9.84381 15.6421 10.8676 16.1 12 16.1C13.1324 16.1 14.1562 15.6421 14.8991 14.8991C15.6421 14.1562 16.1 13.1324 16.1 12C16.1 10.8675 15.6421 9.84378 14.8991 9.10084C14.1562 8.3579 13.1324 7.89998 12 7.89998Z" fill="#2D66EE"/>
<path fill-rule="evenodd" clip-rule="evenodd" d="M13.3435 10.6565C13.0007 10.3136 12.5244 10.1 12 10.1C11.4756 10.1 10.9994 10.3136 10.6565 10.6565C10.3137 10.9993 10.1 11.4756 10.1 12C10.1 12.5244 10.3137 13.0006 10.6565 13.3435C10.9994 13.6863 11.4756 13.9 12 13.9C12.5244 13.9 13.0007 13.6863 13.3435 13.3435C13.6864 13.0006 13.9 12.5244 13.9 12C13.9 11.4756 13.6864 10.9993 13.3435 10.6565Z" fill="#2D66EE"/>
</g>
</g>
</svg>
