<svg width="24" height="24" viewBox="0 0 24 24" fill="none" xmlns="http://www.w3.org/2000/svg">
<g id="magic_wand_outline_24">
<g id="&#226;&#134;&#179; Icon Color">
<path d="M5.37366 8.39668C5.19965 8.48866 5.0114 8.3004 5.10338 8.12639L6.09522 6.25002L5.10338 4.37365C5.0114 4.19965 5.19965 4.01139 5.37366 4.10337L7.25003 5.09521L9.1264 4.10337C9.30041 4.01139 9.48866 4.19965 9.39668 4.37365L8.40484 6.25002L9.39668 8.12639C9.48866 8.3004 9.30041 8.48866 9.1264 8.39668L7.25003 7.40484L5.37366 8.39668Z" fill="#2D66EE"/>
<path d="M17.25 6.90484L15.3737 7.89668C15.1997 7.98866 15.0114 7.8004 15.1034 7.62639L16.0952 5.75002L15.1034 3.87365C15.0114 3.69965 15.1997 3.51139 15.3737 3.60337L17.25 4.59521L19.1264 3.60337C19.3004 3.51139 19.4887 3.69965 19.3967 3.87365L18.4048 5.75002L19.3967 7.62639C19.4887 7.8004 19.3004 7.98866 19.1264 7.89668L17.25 6.90484Z" fill="#2D66EE"/>
<path d="M15.3737 17.3967C15.1997 17.4887 15.0114 17.3004 15.1034 17.1264L16.0952 15.25L15.1034 13.3737C15.0114 13.1996 15.1997 13.0114 15.3737 13.1034L17.25 14.0952L19.1264 13.1034C19.3004 13.0114 19.4887 13.1996 19.3967 13.3737L18.4048 15.25L19.3967 17.1264C19.4887 17.3004 19.3004 17.4887 19.1264 17.3967L17.25 16.4048L15.3737 17.3967Z" fill="#2D66EE"/>
<path fill-rule="evenodd" clip-rule="evenodd" d="M13.1364 10.3636C13.4879 10.7151 13.4879 11.285 13.1364 11.6364L3.6364 21.1364C3.28493 21.4879 2.71508 21.4879 2.36361 21.1364C2.01214 20.785 2.01214 20.2151 2.36361 19.8636L11.8636 10.3636C12.2151 10.0122 12.7849 10.0122 13.1364 10.3636Z" fill="#2D66EE"/>
</g>
</g>
</svg>
