<svg width="24" height="24" viewBox="0 0 24 24" fill="none" xmlns="http://www.w3.org/2000/svg">
<g id="mail_outline_24">
<path id="&#226;&#134;&#179; Icon Color" fill-rule="evenodd" clip-rule="evenodd" d="M7.79998 4.1001H7.76228H7.76225C6.95421 4.10009 6.29336 4.10008 5.75629 4.14396C5.20038 4.18938 4.6983 4.28626 4.22941 4.52517C3.49558 4.89908 2.89896 5.4957 2.52505 6.22954C2.28614 6.69842 2.18926 7.2005 2.14384 7.75642C2.09996 8.29349 2.09997 8.95433 2.09998 9.76238V9.7624V9.8001V14.2001V14.2378V14.2378C2.09997 15.0459 2.09996 15.7067 2.14384 16.2438C2.18926 16.7997 2.28614 17.3018 2.52505 17.7707C2.89896 18.5045 3.49558 19.1011 4.22941 19.475C4.6983 19.7139 5.20038 19.8108 5.75629 19.8562C6.29337 19.9001 6.95422 19.9001 7.76227 19.9001H7.79998H16.2H16.2377C17.0457 19.9001 17.7066 19.9001 18.2437 19.8562C18.7996 19.8108 19.3017 19.7139 19.7705 19.475C20.5044 19.1011 21.101 18.5045 21.4749 17.7707C21.7138 17.3018 21.8107 16.7997 21.8561 16.2438C21.9 15.7067 21.9 15.0459 21.9 14.2378V14.2001V9.8001V9.76239C21.9 8.95434 21.9 8.29349 21.8561 7.75642C21.8107 7.2005 21.7138 6.69842 21.4749 6.22954C21.101 5.4957 20.5044 4.89908 19.7705 4.52517C19.3017 4.28626 18.7996 4.18938 18.2437 4.14396C17.7066 4.10008 17.0457 4.10009 16.2377 4.1001H16.2377H16.2H7.79998ZM5.38061 6.01226C5.51618 5.98091 5.68477 5.9558 5.90287 5.93798C6.35798 5.9008 6.94505 5.9001 7.79998 5.9001H16.2C17.0549 5.9001 17.642 5.9008 18.0971 5.93798C18.3152 5.9558 18.4838 5.98091 18.6193 6.01226L14.6103 9.52018C14.0325 10.0258 13.6369 10.3711 13.3074 10.6175C12.987 10.8571 12.7832 10.9606 12.6069 11.0128C12.2107 11.1299 11.7892 11.1299 11.3931 11.0128C11.2168 10.9606 11.0129 10.8571 10.6925 10.6175C10.3631 10.3711 9.96747 10.0258 9.38967 9.52019L5.38061 6.01226ZM4.05037 7.24009C4.00084 7.39577 3.96243 7.60233 3.93786 7.90299C3.90068 8.3581 3.89998 8.94517 3.89998 9.8001V14.2001C3.89998 15.055 3.90068 15.6421 3.93786 16.0972C3.97419 16.5418 4.04079 16.7806 4.12886 16.9535C4.3302 17.3486 4.65146 17.6699 5.0466 17.8712C5.21944 17.9593 5.45827 18.0259 5.90287 18.0622C6.35798 18.0994 6.94505 18.1001 7.79998 18.1001H16.2C17.0549 18.1001 17.642 18.0994 18.0971 18.0622C18.5417 18.0259 18.7805 17.9593 18.9534 17.8712C19.3485 17.6699 19.6698 17.3486 19.8711 16.9535C19.9592 16.7806 20.0258 16.5418 20.0621 16.0972C20.0993 15.6421 20.1 15.055 20.1 14.2001V9.8001C20.1 8.94517 20.0993 8.3581 20.0621 7.90299C20.0375 7.60233 19.9991 7.39577 19.9496 7.24009L15.7956 10.8748L15.7694 10.8978C15.2242 11.3748 14.7768 11.7663 14.3854 12.059C13.9787 12.3631 13.5796 12.6022 13.1173 12.7389C12.388 12.9546 11.6119 12.9546 10.8826 12.7389C10.4204 12.6022 10.0212 12.3631 9.61455 12.059C9.22317 11.7663 8.77574 11.3748 8.23062 10.8978L8.20436 10.8748L4.05037 7.24009Z" fill="#98A2B3"/>
</g>
</svg>
