<svg width="18" height="20" viewBox="0 0 18 20" fill="none" xmlns="http://www.w3.org/2000/svg">
<g id="Source">
<path id="&#226;&#134;&#179; Icon Color" d="M9.00001 0.0999756C11.7614 0.0999756 14 2.33855 14 5.09998H14.0542C15.3915 5.09998 15.8764 5.23921 16.3653 5.50067C16.8542 5.76214 17.2378 6.14582 17.4993 6.63471C17.7608 7.1236 17.9 7.60852 17.9 8.9458V13.8343C17.9 15.9234 17.6795 16.6959 17.2656 17.47C16.8516 18.2441 16.2441 18.8516 15.47 19.2655C14.6959 19.6795 13.9234 19.9 11.8344 19.9H6.16565C4.07659 19.9 3.30407 19.6795 2.53 19.2655C1.75592 18.8516 1.14843 18.2441 0.734446 17.47C0.320467 16.6959 0.100006 15.9234 0.100006 13.8343V8.9458C0.100006 7.60852 0.239245 7.1236 0.500705 6.63471C0.762166 6.14582 1.14585 5.76214 1.63474 5.50067C2.12363 5.23921 2.60856 5.09998 3.94583 5.09998H4.00001C4.00001 2.33855 6.23858 0.0999756 9.00001 0.0999756ZM14.2469 6.90075L3.94583 6.89998C2.99835 6.89998 2.7428 6.94932 2.48362 7.08794C2.30841 7.18164 2.18167 7.30838 2.08797 7.48358C1.94935 7.74277 1.90001 7.99831 1.90001 8.9458V13.8343C1.90001 15.4693 2.01053 16.0393 2.32171 16.6211C2.56793 17.0815 2.91848 17.4321 3.37888 17.6783C3.96073 17.9895 4.53064 18.1 6.16565 18.1H11.8344C13.4694 18.1 14.0393 17.9895 14.6211 17.6783C15.0815 17.4321 15.4321 17.0815 15.6783 16.6211C15.9895 16.0393 16.1 15.4693 16.1 13.8343V8.9458C16.1 7.99831 16.0507 7.74277 15.912 7.48358C15.8183 7.30838 15.6916 7.18164 15.5164 7.08794C15.2757 6.95922 15.0382 6.90748 14.2469 6.90075ZM12.946 7.99998C13.1514 7.99998 13.2941 8.03478 13.4163 8.10015C13.5385 8.16551 13.6345 8.26144 13.6998 8.38366C13.7652 8.50588 13.8 8.64861 13.8 8.85396V8.94599C13.8 9.15134 13.7652 9.29407 13.6998 9.41629C13.6345 9.53851 13.5385 9.63444 13.4163 9.6998C13.2941 9.76517 13.1514 9.79998 12.946 9.79998H12.854C12.6486 9.79998 12.5059 9.76517 12.3837 9.6998C12.2615 9.63444 12.1655 9.53851 12.1002 9.41629C12.0348 9.29407 12 9.15134 12 8.94599V8.85396C12 8.64861 12.0348 8.50588 12.1002 8.38366C12.1655 8.26144 12.2615 8.16551 12.3837 8.10015C12.5059 8.03478 12.6486 7.99998 12.854 7.99998H12.946ZM4.94602 7.99998C5.15137 7.99998 5.2941 8.03478 5.41632 8.10015C5.53855 8.16551 5.63447 8.26144 5.69983 8.38366C5.7652 8.50588 5.80001 8.64861 5.80001 8.85396V8.94599C5.80001 9.15134 5.7652 9.29407 5.69983 9.41629C5.63447 9.53851 5.53855 9.63444 5.41632 9.6998C5.2941 9.76517 5.15137 9.79998 4.94602 9.79998H4.85399C4.64864 9.79998 4.50591 9.76517 4.38369 9.6998C4.26147 9.63444 4.16555 9.53851 4.10018 9.41629C4.03482 9.29407 4.00001 9.15134 4.00001 8.94599V8.85396C4.00001 8.64861 4.03482 8.50588 4.10018 8.38366C4.16555 8.26144 4.26147 8.16551 4.38369 8.10015C4.50591 8.03478 4.64864 7.99998 4.85399 7.99998H4.94602ZM9.00001 1.89998C7.23269 1.89998 5.80001 3.33266 5.80001 5.09998H12.2C12.2 3.33266 10.7673 1.89998 9.00001 1.89998Z" fill="#2D66EE"/>
</g>
</svg>
