<svg width="24" height="24" viewBox="0 0 24 24" fill="none" xmlns="http://www.w3.org/2000/svg">
<g id="narrative_active_outline_24">
<path id="&#226;&#134;&#179; Icon Color" d="M14.2977 1.43478C15.0301 1.60572 15.6748 1.97796 16.189 2.52673C16.7103 3.08303 17.0136 3.67244 17.34 4.82461L18.1309 7.769C18.2738 8.30246 17.9572 8.8508 17.4238 8.99374C16.8903 9.13668 16.342 8.8201 16.199 8.28663L15.4786 5.59795L15.366 5.19565C15.151 4.46707 14.9894 4.17153 14.7296 3.89425C14.4856 3.6339 14.1906 3.46353 13.8431 3.38243C13.4731 3.29606 13.1363 3.30392 12.3979 3.48204L11.9932 3.58564L6.86571 4.95954C6.01172 5.18837 5.61196 5.35416 5.35689 5.54274L5.29595 5.5904L5.16201 5.70853C4.90166 5.95248 4.73129 6.24757 4.65019 6.59502C4.55662 6.9959 4.57364 7.35767 4.79792 8.23347L7.5214 18.4021L7.63404 18.8043C7.84901 19.5329 8.01056 19.8285 8.27038 20.1058C8.51434 20.3661 8.80943 20.5365 9.15688 20.6176C9.55809 20.7112 9.90219 20.6939 10.7642 20.4774C11.2999 20.3429 11.8432 20.6681 11.9777 21.2037C12.1122 21.7393 11.787 22.2826 11.2514 22.4172C10.1026 22.7057 9.44564 22.7387 8.70228 22.5652C7.96992 22.3943 7.32518 22.022 6.81097 21.4733C6.28969 20.917 5.9864 20.3276 5.65994 19.1754L2.92155 8.96259C2.56692 7.63909 2.51688 6.93586 2.70254 6.14042C2.85449 5.48944 3.16549 4.90768 3.63267 4.41205L3.81518 4.23026L3.99402 4.07252C4.48972 3.66088 5.07127 3.38817 6.08534 3.10011L6.34807 3.02769L11.4755 1.65379C12.799 1.29916 13.5023 1.24912 14.2977 1.43478ZM18.3684 11C20.3686 11 22 12.5915 22 14.5673C22 16.4763 21.2284 17.4183 18.2201 19.7009L16.8923 20.7084C16.3648 21.1087 15.6352 21.1087 15.1077 20.7084L13.7799 19.7009C10.7716 17.4183 9.99999 16.4763 9.99999 14.5673C9.99999 12.5915 11.6314 11 13.6316 11C14.4608 11 15.2275 11.2237 15.914 11.6597L16 11.717L16.086 11.6597C16.7039 11.2673 17.3867 11.0469 18.1215 11.0067L18.3684 11Z" fill="#2D66EE"/>
</g>
</svg>
