<svg width="24" height="24" viewBox="0 0 24 24" fill="none" xmlns="http://www.w3.org/2000/svg">
<g id="place_outline_24">
<g id="&#226;&#134;&#179; Icon Color">
<path fill-rule="evenodd" clip-rule="evenodd" d="M12 13C13.933 13 15.5 11.433 15.5 9.5C15.5 7.567 13.933 6 12 6C10.067 6 8.5 7.567 8.5 9.5C8.5 11.433 10.067 13 12 13ZM12 11.2C12.9389 11.2 13.7 10.4389 13.7 9.49999C13.7 8.5611 12.9389 7.79999 12 7.79999C11.0611 7.79999 10.3 8.5611 10.3 9.49999C10.3 10.4389 11.0611 11.2 12 11.2Z" fill="#98A2B3"/>
<path fill-rule="evenodd" clip-rule="evenodd" d="M4.24286 9.76987C4.24286 5.48026 7.71428 2 12 2C16.2857 2 19.7571 5.48026 19.7571 9.76987C19.7571 12.903 17.7831 16.6225 14.1924 20.8679C14.0893 20.9898 13.9762 21.1029 13.8543 21.206C12.6435 22.2301 10.8317 22.0787 9.80758 20.8679L9.2405 20.1974L9.24626 20.1923C6.01172 16.2269 4.24286 12.7357 4.24286 9.76987ZM11.185 19.7091C11.5677 20.1576 12.2413 20.2128 12.6919 19.8317C12.7374 19.7932 12.7796 19.751 12.8181 19.7055C16.3633 15.5139 17.9571 12.2221 17.9571 9.76987C17.9571 6.47123 15.2885 3.8 12 3.8C8.71154 3.8 6.04286 6.47123 6.04286 9.76987C6.04286 12.2221 7.63673 15.5139 11.1819 19.7055L11.185 19.7091Z" fill="#98A2B3"/>
</g>
</g>
</svg>
