<svg width="48" height="48" viewBox="0 0 48 48" fill="none" xmlns="http://www.w3.org/2000/svg">
<path d="M46.0425 18.81L36 14.505V7.5C35.9985 7.30117 35.9206 7.11051 35.7825 6.9675L30.5325 1.7175C30.3895 1.57935 30.1988 1.50148 30 1.5H3.75C3.15381 1.50178 2.58255 1.73941 2.16098 2.16098C1.73941 2.58255 1.50178 3.15381 1.5 3.75V44.25C1.50178 44.8462 1.73941 45.4175 2.16098 45.839C2.58255 46.2606 3.15381 46.4982 3.75 46.5H33.75C34.3462 46.4982 34.9175 46.2606 35.339 45.839C35.7606 45.4175 35.9982 44.8462 36 44.25V42.3825L39.9075 39.6C41.9443 38.1397 43.6045 36.2157 44.7508 33.9869C45.8971 31.7582 46.4967 29.2887 46.5 26.7825V19.5C46.4999 19.3528 46.4564 19.2089 46.3751 19.0862C46.2937 18.9635 46.1781 18.8674 46.0425 18.81ZM30.75 4.0575L33.4425 6.75H30.75V4.0575ZM34.5 44.25C34.5 44.4489 34.421 44.6397 34.2803 44.7803C34.1397 44.921 33.9489 45 33.75 45H3.75C3.55109 45 3.36032 44.921 3.21967 44.7803C3.07902 44.6397 3 44.4489 3 44.25V3.75C3 3.55109 3.07902 3.36032 3.21967 3.21967C3.36032 3.07902 3.55109 3 3.75 3H29.25V7.5C29.25 7.69891 29.329 7.88968 29.4697 8.03033C29.6103 8.17098 29.8011 8.25 30 8.25H34.5V14.505L29.685 16.5675L26.4075 13.29C26.7676 12.9551 26.9806 12.4914 27 12C27 11.115 26.265 10.5375 25.68 10.0725C25.4161 9.89393 25.183 9.67354 24.99 9.42C24.9314 9.08455 24.9365 8.74107 25.005 8.4075C25.0875 7.635 25.185 6.765 24.585 6.165C23.985 5.565 23.1075 5.6625 22.3425 5.745C22.0115 5.81354 21.6704 5.81863 21.3375 5.76C21.0795 5.56957 20.8563 5.33616 20.6775 5.07C20.2125 4.4775 19.635 3.75 18.75 3.75C17.865 3.75 17.2875 4.485 16.8225 5.07C16.6439 5.33392 16.4235 5.56698 16.17 5.76C15.8345 5.81859 15.4911 5.8135 15.1575 5.745C14.385 5.6625 13.515 5.565 12.915 6.165C12.315 6.765 12.4125 7.635 12.495 8.4075C12.5635 8.73853 12.5686 9.07957 12.51 9.4125C12.3196 9.67045 12.0862 9.89371 11.82 10.0725C11.2275 10.5375 10.5 11.115 10.5 12C10.5194 12.4914 10.7324 12.9551 11.0925 13.29L6.5475 17.835C6.44817 17.9356 6.37928 18.0621 6.34876 18.2001C6.31824 18.3381 6.32734 18.4819 6.375 18.615C6.42082 18.7482 6.50376 18.8656 6.61404 18.9533C6.72432 19.041 6.85736 19.0954 6.9975 19.11L11.175 19.575L11.64 23.7525C11.6546 23.8926 11.709 24.0257 11.7967 24.136C11.8844 24.2462 12.0018 24.3292 12.135 24.375C12.2142 24.4044 12.298 24.4196 12.3825 24.42C12.5817 24.4206 12.7731 24.3424 12.915 24.2025L17.46 19.6575C17.6196 19.8434 17.8175 19.9926 18.0402 20.0949C18.2628 20.1972 18.505 20.2502 18.75 20.2502C18.995 20.2502 19.2372 20.1972 19.4598 20.0949C19.6825 19.9926 19.8804 19.8434 20.04 19.6575L24 23.61V26.7825C24.0024 27.3563 24.0349 27.9296 24.0975 28.5H6V30H24.3375C24.45 30.51 24.5775 31.005 24.7275 31.5H6V33H25.29C25.5118 33.5123 25.7596 34.013 26.0325 34.5H6V36H26.9925C27.369 36.5266 27.7799 37.0276 28.2225 37.5H6V39H29.8125C30.0675 39.2025 30.33 39.405 30.5925 39.6L34.5 42.3825V44.25ZM12.915 17.835C13.515 18.435 14.385 18.3375 15.1575 18.255C15.4889 18.1903 15.8293 18.1852 16.1625 18.24C16.2846 18.3079 16.3917 18.3997 16.4775 18.51L12.96 22.035L12.6 18.81C12.5808 18.6416 12.505 18.4847 12.3852 18.3648C12.2653 18.245 12.1084 18.1692 11.94 18.15L8.715 17.79L12.24 14.2725C12.3497 14.3559 12.4415 14.4604 12.51 14.58C12.5686 14.9155 12.5635 15.2589 12.495 15.5925C12.4125 16.365 12.315 17.235 12.915 17.835ZM15.8475 16.695C15.5615 16.7026 15.2761 16.7251 14.9925 16.7625C14.6585 16.8273 14.3157 16.8323 13.98 16.7775C13.9182 16.4401 13.9207 16.094 13.9875 15.7575C14.1052 15.1767 14.0743 14.5756 13.8975 14.01C13.6279 13.4996 13.233 13.066 12.75 12.75C12.5025 12.555 12 12.1575 12 12C12 11.8425 12.5025 11.445 12.75 11.25C13.233 10.934 13.6279 10.5004 13.8975 9.99C14.0743 9.42439 14.1052 8.82328 13.9875 8.2425C13.9227 7.90853 13.9177 7.56574 13.9725 7.23C14.3099 7.1682 14.656 7.17074 14.9925 7.2375C15.5733 7.35524 16.1744 7.32428 16.74 7.1475C17.2504 6.87788 17.684 6.48304 18 6C18.195 5.7525 18.5925 5.25 18.75 5.25C18.9075 5.25 19.305 5.7525 19.5 6C19.816 6.48304 20.2496 6.87788 20.76 7.1475C21.3256 7.32428 21.9267 7.35524 22.5075 7.2375C22.8415 7.17274 23.1843 7.16766 23.52 7.2225C23.5818 7.55993 23.5793 7.90601 23.5125 8.2425C23.3948 8.82328 23.4257 9.42439 23.6025 9.99C23.8721 10.5004 24.267 10.934 24.75 11.25C24.9975 11.445 25.5 11.8425 25.5 12C25.5 12.1575 24.9975 12.555 24.75 12.75C24.267 13.066 23.8721 13.4996 23.6025 14.01C23.4257 14.5756 23.3948 15.1767 23.5125 15.7575C23.5773 16.0915 23.5823 16.4343 23.5275 16.77C23.1897 16.828 22.8444 16.8254 22.5075 16.7625C21.9267 16.6448 21.3256 16.6757 20.76 16.8525C20.2496 17.1221 19.816 17.517 19.5 18C19.305 18.2475 18.9075 18.75 18.75 18.75C18.5925 18.75 18.195 18.2475 18 18C17.684 17.517 17.2504 17.1221 16.74 16.8525C16.4561 16.7404 16.1526 16.6869 15.8475 16.695ZM21.33 18.24C21.6655 18.1814 22.0089 18.1865 22.3425 18.255C23.1075 18.3375 23.985 18.435 24.585 17.835C25.185 17.235 25.0875 16.365 25.005 15.5925C24.9365 15.2615 24.9314 14.9204 24.99 14.5875C25.0579 14.4654 25.1497 14.3583 25.26 14.2725L28.2 17.205L24.4575 18.81C24.3219 18.8674 24.2063 18.9635 24.1249 19.0862C24.0436 19.2089 24.0001 19.3528 24 19.5V21.495L21.0225 18.51C21.1059 18.4003 21.2104 18.3085 21.33 18.24ZM45 26.7825C44.9982 29.0506 44.4556 31.2856 43.4174 33.3021C42.3791 35.3186 40.8751 37.0585 39.03 38.3775L35.25 41.0775L31.47 38.3775C29.6249 37.0585 28.1209 35.3186 27.0826 33.3021C26.0444 31.2856 25.5018 29.0506 25.5 26.7825V19.995L35.25 15.8175L45 19.995V26.7825Z" fill="#2D66EE"/>
<path d="M34.9718 18.0533L27.4718 21.0533C27.3325 21.1089 27.2131 21.2051 27.129 21.3293C27.0449 21.4535 27 21.6 27 21.75V26.4825C26.9953 28.3955 27.4233 30.2847 28.2519 32.0088C29.0806 33.733 30.2884 35.2474 31.785 36.4388L34.7813 38.8388C34.9143 38.9453 35.0796 39.0033 35.25 39.0033C35.4204 39.0033 35.5858 38.9453 35.7188 38.8388L38.715 36.4388C40.2117 35.2474 41.4195 33.733 42.2482 32.0088C43.0768 30.2847 43.5048 28.3955 43.5 26.4825V21.75C43.5001 21.6 43.4552 21.4535 43.3711 21.3293C43.287 21.2051 43.1676 21.1089 43.0283 21.0533L35.5283 18.0533C35.3497 17.9819 35.1504 17.9819 34.9718 18.0533ZM42 22.2578V26.4825C42.0041 28.1703 41.6264 29.8372 40.8952 31.3583C40.164 32.8795 39.0982 34.2155 37.7775 35.2665L35.25 37.29L32.7225 35.265C31.4021 34.2142 30.3364 32.8784 29.6052 31.3575C28.874 29.8366 28.4962 28.1701 28.5 26.4825V22.2578L35.25 19.5578L42 22.2578Z" fill="#2D66EE"/>
<path d="M32.0303 27.9696L30.9698 29.0301L33.2198 31.2801C33.3605 31.4207 33.5512 31.4998 33.7501 31.4998H33.7748C33.8776 31.4965 33.9785 31.472 34.0714 31.4281C34.1643 31.3841 34.2472 31.3214 34.3148 31.2441L39.5648 25.2441L38.4354 24.2571L33.7103 29.6571L32.0303 27.9696Z" fill="#2D66EE"/>
<path d="M22.5 12C22.5 11.2583 22.28 10.5333 21.868 9.91661C21.4559 9.29993 20.8703 8.81928 20.185 8.53545C19.4998 8.25162 18.7458 8.17736 18.0184 8.32206C17.291 8.46675 16.6228 8.8239 16.0983 9.34835C15.5739 9.8728 15.2167 10.541 15.072 11.2684C14.9273 11.9958 15.0016 12.7498 15.2854 13.4351C15.5693 14.1203 16.0499 14.706 16.6666 15.118C17.2833 15.5301 18.0083 15.75 18.75 15.75C19.7442 15.7488 20.6973 15.3533 21.4003 14.6503C22.1033 13.9473 22.4988 12.9942 22.5 12ZM16.5 12C16.5 11.555 16.6319 11.12 16.8792 10.75C17.1264 10.38 17.4778 10.0916 17.8889 9.92127C18.3001 9.75097 18.7525 9.70642 19.1889 9.79323C19.6254 9.88005 20.0263 10.0943 20.341 10.409C20.6556 10.7237 20.8699 11.1246 20.9568 11.561C21.0436 11.9975 20.999 12.4499 20.8287 12.861C20.6584 13.2722 20.37 13.6236 20 13.8708C19.63 14.118 19.195 14.25 18.75 14.25C18.1532 14.25 17.581 14.0129 17.159 13.591C16.737 13.169 16.5 12.5967 16.5 12Z" fill="#2D66EE"/>
</svg>
