<svg width="24" height="24" viewBox="0 0 24 24" fill="none" xmlns="http://www.w3.org/2000/svg">
<g id="smartphone_outline_24">
<path id="&#226;&#134;&#179; Icon Color" fill-rule="evenodd" clip-rule="evenodd" d="M11.18 3.9001H12.82C13.9138 3.9001 14.6259 3.9015 15.1692 3.94589C15.6916 3.98857 15.8976 4.06184 16.0079 4.11808C16.3843 4.30983 16.6902 4.61579 16.882 4.99212C16.9382 5.10251 17.0115 5.3085 17.0542 5.83084C17.0986 6.3742 17.1 7.0863 17.1 8.1801V15.8201C17.1 16.9139 17.0986 17.626 17.0542 18.1694C17.0115 18.6917 16.9382 18.8977 16.882 19.0081C16.6902 19.3844 16.3843 19.6904 16.0079 19.8821C15.8976 19.9384 15.6916 20.0117 15.1692 20.0543C14.6259 20.0987 13.9138 20.1001 12.82 20.1001H11.18C10.0862 20.1001 9.37408 20.0987 8.83072 20.0543C8.30838 20.0117 8.10238 19.9384 7.99199 19.8821C7.61567 19.6904 7.30971 19.3844 7.11796 19.0081C7.06172 18.8977 6.98845 18.6917 6.94577 18.1694C6.90138 17.626 6.89998 16.9139 6.89998 15.8201V8.18009C6.89998 7.08629 6.90138 6.3742 6.94577 5.83084C6.98845 5.3085 7.06172 5.10251 7.11796 4.99212C7.30971 4.61579 7.61567 4.30983 7.99199 4.11808C8.10238 4.06184 8.30838 3.98857 8.83072 3.94589C9.37408 3.9015 10.0862 3.9001 11.18 3.9001ZM5.09998 8.18009C5.09998 6.0519 5.09998 4.9878 5.51415 4.17493C5.87847 3.45992 6.4598 2.87859 7.17481 2.51427C7.98768 2.1001 9.05178 2.1001 11.18 2.1001H12.82C14.9482 2.1001 16.0123 2.1001 16.8251 2.51427C17.5401 2.87859 18.1215 3.45992 18.4858 4.17493C18.9 4.9878 18.9 6.0519 18.9 8.1801V15.8201C18.9 17.9483 18.9 19.0124 18.4858 19.8253C18.1215 20.5403 17.5401 21.1216 16.8251 21.4859C16.0123 21.9001 14.9482 21.9001 12.82 21.9001H11.18C9.05178 21.9001 7.98768 21.9001 7.17481 21.4859C6.4598 21.1216 5.87847 20.5403 5.51415 19.8253C5.09998 19.0124 5.09998 17.9483 5.09998 15.8201V8.18009ZM11.25 16.2001C10.7529 16.2001 10.35 16.603 10.35 17.1001C10.35 17.5972 10.7529 18.0001 11.25 18.0001H12.75C13.247 18.0001 13.65 17.5972 13.65 17.1001C13.65 16.603 13.247 16.2001 12.75 16.2001H11.25Z" fill="#98A2B3"/>
</g>
</svg>
