<svg width="24" height="24" viewBox="0 0 24 24" fill="none" xmlns="http://www.w3.org/2000/svg">
<g id="smartphone_outline_24">
<path id="&#226;&#134;&#179; Icon Color" fill-rule="evenodd" clip-rule="evenodd" d="M11.18 3.89997H12.82C13.9138 3.89997 14.6259 3.90138 15.1693 3.94577C15.6916 3.98845 15.8976 4.06172 16.008 4.11796C16.3843 4.30971 16.6903 4.61567 16.882 4.99199C16.9383 5.10238 17.0115 5.30838 17.0542 5.83072C17.0986 6.37408 17.1 7.08617 17.1 8.17998V15.82C17.1 16.9138 17.0986 17.6259 17.0542 18.1693C17.0115 18.6916 16.9383 18.8976 16.882 19.008C16.6903 19.3843 16.3843 19.6903 16.008 19.882C15.8976 19.9383 15.6916 20.0115 15.1693 20.0542C14.6259 20.0986 13.9138 20.1 12.82 20.1H11.18C10.0862 20.1 9.37411 20.0986 8.83075 20.0542C8.30841 20.0115 8.10242 19.9383 7.99203 19.882C7.6157 19.6903 7.30974 19.3843 7.11799 19.008C7.06175 18.8976 6.98848 18.6916 6.9458 18.1693C6.90141 17.6259 6.90001 16.9138 6.90001 15.82V8.17997C6.90001 7.08617 6.90141 6.37408 6.9458 5.83072C6.98848 5.30838 7.06175 5.10239 7.11799 4.99199C7.30974 4.61567 7.6157 4.30971 7.99203 4.11796C8.10242 4.06172 8.30841 3.98845 8.83075 3.94577C9.37411 3.90138 10.0862 3.89997 11.18 3.89997ZM5.10001 8.17997C5.10001 6.05177 5.10001 4.98768 5.51418 4.17481C5.8785 3.4598 6.45983 2.87847 7.17484 2.51415C7.98771 2.09998 9.05181 2.09998 11.18 2.09998H12.82C14.9482 2.09998 16.0123 2.09998 16.8252 2.51415C17.5402 2.87847 18.1215 3.4598 18.4858 4.17481C18.9 4.98768 18.9 6.05178 18.9 8.17998V15.82C18.9 17.9482 18.9 19.0123 18.4858 19.8252C18.1215 20.5402 17.5402 21.1215 16.8252 21.4858C16.0123 21.9 14.9482 21.9 12.82 21.9H11.18C9.05181 21.9 7.98771 21.9 7.17484 21.4858C6.45983 21.1215 5.8785 20.5402 5.51418 19.8252C5.10001 19.0123 5.10001 17.9482 5.10001 15.82V8.17997ZM11.25 16.2C10.7529 16.2 10.35 16.6029 10.35 17.1C10.35 17.597 10.7529 18 11.25 18H12.75C13.2471 18 13.65 17.597 13.65 17.1C13.65 16.6029 13.2471 16.2 12.75 16.2H11.25Z" fill="#2D66EE"/>
</g>
</svg>
