<svg width="24" height="24" viewBox="0 0 24 24" fill="none" xmlns="http://www.w3.org/2000/svg">
<g id="video_circle_outline_24">
<g id="&#226;&#134;&#179; Icon Color">
<path fill-rule="evenodd" clip-rule="evenodd" d="M12 15.6373L15.3 13.732C16.6333 12.9622 16.6333 11.0377 15.3 10.2679L12 8.36267C10.6666 7.59287 8.99997 8.55512 8.99997 10.0947L8.99997 13.9053C8.99997 15.4449 10.6666 16.4071 12 15.6373ZM14.4 11.8268C14.5333 11.9038 14.5333 12.0962 14.4 12.1732L11.1 14.0785C10.9666 14.1555 10.8 14.0592 10.8 13.9053V10.0947C10.8 9.94076 10.9666 9.84453 11.1 9.92152L14.4 11.8268Z" fill="#2D66EE"/>
<path fill-rule="evenodd" clip-rule="evenodd" d="M4.99965 4.99962C6.79021 3.20906 9.26645 2.09998 12 2.09998C14.7336 2.09998 17.2098 3.20906 19.0004 4.99962C20.7909 6.79018 21.9 9.26641 21.9 12C21.9 14.7335 20.7909 17.2098 19.0004 19.0003C17.2098 20.7909 14.7336 21.9 12 21.9C9.26644 21.9 6.79021 20.7909 4.99965 19.0003C3.20909 17.2098 2.10001 14.7335 2.10001 12C2.10001 9.26641 3.20909 6.79018 4.99965 4.99962ZM12 3.89998C9.763 3.89998 7.73924 4.80561 6.27244 6.27241C4.80564 7.73921 3.90001 9.76297 3.90001 12C3.90001 14.237 4.80564 16.2607 6.27244 17.7275C7.73924 19.1943 9.763 20.1 12 20.1C14.237 20.1 16.2608 19.1943 17.7276 17.7275C19.1944 16.2607 20.1 14.237 20.1 12C20.1 9.76297 19.1944 7.73921 17.7276 6.27241C16.2608 4.80561 14.237 3.89998 12 3.89998Z" fill="#2D66EE"/>
</g>
</g>
</svg>
