<svg width="24" height="24" viewBox="0 0 24 24" fill="none" xmlns="http://www.w3.org/2000/svg">
<g id="video_outline_24">
<g id="&#226;&#134;&#179; Icon Color">
<path d="M7.25 15.75H8.25C8.66421 15.75 9 16.0858 9 16.5V17.5C9 17.9142 8.66421 18.25 8.25 18.25H7.25C6.83579 18.25 6.5 17.9142 6.5 17.5V16.5C6.5 16.0858 6.83579 15.75 7.25 15.75Z" fill="#2D66EE"/>
<path d="M15.75 15.75H16.75C17.1642 15.75 17.5 16.0858 17.5 16.5V17.5C17.5 17.9142 17.1642 18.25 16.75 18.25H15.75C15.3358 18.25 15 17.9142 15 17.5V16.5C15 16.0858 15.3358 15.75 15.75 15.75Z" fill="#2D66EE"/>
<path d="M7.25 10.75H8.25C8.66421 10.75 9 11.0858 9 11.5V12.5C9 12.9142 8.66421 13.25 8.25 13.25H7.25C6.83579 13.25 6.5 12.9142 6.5 12.5V11.5C6.5 11.0858 6.83579 10.75 7.25 10.75Z" fill="#2D66EE"/>
<path d="M15.75 10.75H16.75C17.1642 10.75 17.5 11.0858 17.5 11.5V12.5C17.5 12.9142 17.1642 13.25 16.75 13.25H15.75C15.3358 13.25 15 12.9142 15 12.5V11.5C15 11.0858 15.3358 10.75 15.75 10.75Z" fill="#2D66EE"/>
<path d="M7.25 5.75H8.25C8.66421 5.75 9 6.08579 9 6.5V7.5C9 7.91421 8.66421 8.25 8.25 8.25H7.25C6.83579 8.25 6.5 7.91421 6.5 7.5V6.5C6.5 6.08579 6.83579 5.75 7.25 5.75Z" fill="#2D66EE"/>
<path d="M15.75 5.75H16.75C17.1642 5.75 17.5 6.08579 17.5 6.5V7.5C17.5 7.91421 17.1642 8.25 16.75 8.25H15.75C15.3358 8.25 15 7.91421 15 7.5V6.5C15 6.08579 15.3358 5.75 15.75 5.75Z" fill="#2D66EE"/>
<path fill-rule="evenodd" clip-rule="evenodd" d="M9.46131 2.09998H14.5387C15.556 2.09997 16.3742 2.09996 17.0363 2.15406C17.7173 2.20969 18.312 2.32701 18.8611 2.6068C19.736 3.05261 20.4474 3.76397 20.8932 4.63892C21.173 5.18803 21.2903 5.78272 21.3459 6.46369C21.4 7.12579 21.4 7.944 21.4 8.96128V15.0387C21.4 16.0559 21.4 16.8742 21.3459 17.5363C21.2903 18.2172 21.173 18.8119 20.8932 19.361C20.4474 20.236 19.736 20.9473 18.8611 21.3932C18.312 21.6729 17.7173 21.7903 17.0363 21.8459C16.3742 21.9 15.556 21.9 14.5387 21.9H9.46131C8.44404 21.9 7.62582 21.9 6.96373 21.8459C6.28275 21.7903 5.68806 21.6729 5.13895 21.3932C4.264 20.9473 3.55264 20.236 3.10683 19.361C2.82704 18.8119 2.70972 18.2172 2.65409 17.5363C2.59999 16.8742 2.6 16.0559 2.60001 15.0387V8.96127C2.6 7.944 2.59999 7.12579 2.65409 6.46369C2.70972 5.78272 2.82704 5.18803 3.10683 4.63892C3.55264 3.76397 4.264 3.05261 5.13895 2.6068C5.68806 2.32701 6.28275 2.20969 6.96373 2.15406C7.62582 2.09996 8.44404 2.09997 9.46131 2.09998ZM7.1103 3.94808C6.54064 3.99462 6.2092 4.08167 5.95613 4.21061C5.41987 4.48385 4.98388 4.91984 4.71064 5.4561C4.5817 5.70917 4.49465 6.04061 4.44811 6.61027C4.40071 7.19044 4.40001 7.93503 4.40001 8.99998V15C4.40001 16.0649 4.40071 16.8095 4.44811 17.3897C4.49465 17.9593 4.5817 18.2908 4.71064 18.5438C4.98388 19.0801 5.41987 19.5161 5.95613 19.7893C6.2092 19.9183 6.54064 20.0053 7.1103 20.0519C7.69047 20.0993 8.43506 20.1 9.50001 20.1H14.5C15.565 20.1 16.3095 20.0993 16.8897 20.0519C17.4594 20.0053 17.7908 19.9183 18.0439 19.7893C18.5801 19.5161 19.0161 19.0801 19.2894 18.5438C19.4183 18.2908 19.5054 17.9593 19.5519 17.3897C19.5993 16.8095 19.6 16.0649 19.6 15V8.99998C19.6 7.93503 19.5993 7.19044 19.5519 6.61027C19.5054 6.04061 19.4183 5.70917 19.2894 5.4561C19.0161 4.91984 18.5801 4.48385 18.0439 4.21061C17.7908 4.08167 17.4594 3.99462 16.8897 3.94808C16.3095 3.90068 15.565 3.89998 14.5 3.89998H9.50001C8.43506 3.89998 7.69047 3.90068 7.1103 3.94808Z" fill="#2D66EE"/>
</g>
</g>
</svg>
