<svg width="24" height="24" viewBox="0 0 24 24" fill="none" xmlns="http://www.w3.org/2000/svg">
<g id="work_outline_24">
<path id="&#226;&#134;&#179; Icon Color" fill-rule="evenodd" clip-rule="evenodd" d="M11.1646 3.09998H11.2H12.8H12.8354H12.8354C13.3653 3.09996 13.8165 3.09995 14.1869 3.13021C14.5761 3.16201 14.9546 3.23164 15.3166 3.41606C15.8623 3.69409 16.3059 4.13773 16.5839 4.6834C16.7683 5.04534 16.838 5.42393 16.8698 5.81309C16.8988 6.16838 16.9 6.59795 16.9 7.09998H17.8L17.8354 7.09998C18.3653 7.09996 18.8165 7.09995 19.1869 7.13021C19.5761 7.16201 19.9546 7.23164 20.3166 7.41606C20.8623 7.69409 21.3059 8.13773 21.5839 8.6834C21.7683 9.04534 21.838 9.42393 21.8698 9.81309C21.9 10.1835 21.9 10.6347 21.9 11.1645V11.1646V11.1646V11.2V12.6V12.6333C21.9 13.0248 21.9 13.3713 21.8766 13.6585C21.8516 13.9642 21.7956 14.2811 21.6384 14.5896C21.4083 15.0411 21.0412 15.4083 20.5896 15.6384C20.3617 15.7545 20.1292 15.8154 19.9 15.8494V16.4V16.4361C19.9 17.0354 19.9 17.539 19.8664 17.9511C19.8312 18.3819 19.7547 18.7914 19.5567 19.18C19.2547 19.7728 18.7728 20.2546 18.1801 20.5566C17.7914 20.7547 17.3819 20.8311 16.9511 20.8663C16.539 20.9 16.0355 20.9 15.4362 20.9H15.4362L15.4 20.9H8.60001L8.56387 20.9H8.56377C7.96453 20.9 7.46099 20.9 7.04892 20.8663C6.61808 20.8311 6.20861 20.7547 5.81994 20.5566C5.22723 20.2546 4.74534 19.7728 4.44334 19.18C4.2453 18.7914 4.16885 18.3819 4.13365 17.9511C4.09998 17.539 4.1 17.0354 4.10001 16.4361L4.10001 16.4V15.8494C3.8708 15.8154 3.63832 15.7545 3.41043 15.6384C2.95884 15.4083 2.59169 15.0411 2.36159 14.5896C2.20443 14.2811 2.14842 13.9642 2.12343 13.6585C2.09997 13.3713 2.09999 13.0248 2.10001 12.6334V12.6333L2.10001 12.6V11.2L2.10001 11.1646V11.1645C2.09999 10.6347 2.09998 10.1835 2.13025 9.81309C2.16204 9.42393 2.23168 9.04534 2.41609 8.6834C2.69412 8.13773 3.13777 7.69409 3.68344 7.41606C4.04537 7.23164 4.42396 7.16201 4.81312 7.13021C5.18356 7.09995 5.63474 7.09996 6.16461 7.09998L6.20001 7.09998H7.10001C7.10004 6.59795 7.10122 6.16838 7.13025 5.81309C7.16204 5.42393 7.23168 5.04534 7.41609 4.6834C7.69412 4.13773 8.13777 3.69409 8.68344 3.41606C9.04537 3.23164 9.42396 3.16201 9.81312 3.13021C10.1835 3.09995 10.6347 3.09996 11.1646 3.09998H11.1646ZM5.40001 14.1H18.6C19.0349 14.1 19.3069 14.0993 19.5119 14.0825C19.7064 14.0666 19.76 14.0409 19.7724 14.0346C19.8853 13.9771 19.9771 13.8853 20.0346 13.7724C20.0409 13.76 20.0667 13.7064 20.0826 13.5119C20.0993 13.3069 20.1 13.0349 20.1 12.6V11.2C20.1 10.6251 20.0993 10.248 20.0758 9.95967C20.053 9.68182 20.0137 9.56648 19.9801 9.50059C19.8747 9.29361 19.7064 9.12533 19.4994 9.01987C19.4335 8.9863 19.3182 8.94694 19.0403 8.92424C18.752 8.90068 18.3749 8.89998 17.8 8.89998H16.9V8.89999H16H8.00001H7.10001V8.89998H6.20001C5.62511 8.89998 5.24806 8.90068 4.9597 8.92424C4.68185 8.94694 4.56651 8.9863 4.50062 9.01987C4.29364 9.12533 4.12536 9.29361 4.0199 9.50059C3.98633 9.56648 3.94697 9.68182 3.92427 9.95967C3.90071 10.248 3.90001 10.6251 3.90001 11.2V12.6C3.90001 13.0349 3.90071 13.3069 3.91746 13.5119C3.93335 13.7064 3.95908 13.76 3.96541 13.7724C4.02293 13.8853 4.11472 13.9771 4.22761 14.0346C4.24003 14.0409 4.29363 14.0666 4.4881 14.0825C4.69308 14.0993 4.96512 14.1 5.40001 14.1ZM5.90001 15.9V16.4C5.90001 17.0449 5.90071 17.4744 5.92767 17.8045C5.95378 18.124 5.99995 18.2702 6.04715 18.3629C6.17658 18.6169 6.3831 18.8234 6.63712 18.9528C6.72975 19 6.87597 19.0462 7.1955 19.0723C7.52554 19.0993 7.9551 19.1 8.60001 19.1H15.4C16.0449 19.1 16.4745 19.0993 16.8045 19.0723C17.1241 19.0462 17.2703 19 17.3629 18.9528C17.6169 18.8234 17.8234 18.6169 17.9529 18.3629C18.0001 18.2702 18.0462 18.124 18.0723 17.8045C18.0993 17.4744 18.1 17.0449 18.1 16.4V15.9H5.90001ZM15.0757 5.95967C15.0979 6.23096 15.0998 6.58076 15.1 7.09998H8.90002C8.90017 6.58076 8.9021 6.23096 8.92427 5.95967C8.94697 5.68182 8.98633 5.56648 9.0199 5.50059C9.12536 5.29361 9.29364 5.12533 9.50062 5.01987C9.56651 4.9863 9.68185 4.94694 9.9597 4.92424C10.2481 4.90068 10.6251 4.89998 11.2 4.89998H12.8C13.3749 4.89998 13.752 4.90068 14.0403 4.92424C14.3182 4.94694 14.4335 4.9863 14.4994 5.01987C14.7064 5.12533 14.8747 5.29361 14.9801 5.50059C15.0137 5.56648 15.053 5.68182 15.0757 5.95967Z" fill="#2D66EE"/>
</g>
</svg>
